<?xml version="1.0" encoding="utf-8"?>
<!-- Generator: Adobe Illustrator 13.0.0, SVG Export Plug-In . SVG Version: 6.00 Build 14948)  -->
<!DOCTYPE svg PUBLIC "-//W3C//DTD SVG 1.1//EN" "http://www.w3.org/Graphics/SVG/1.1/DTD/svg11.dtd">
<svg version="1.1" xmlns="http://www.w3.org/2000/svg" xmlns:xlink="http://www.w3.org/1999/xlink" x="0px" y="0px"
	 width="1595.615px" height="1595.614px" viewBox="0 0 1595.615 1595.614" enable-background="new 0 0 1595.615 1595.614"
	 xml:space="preserve">
<g id="Capa_1">
	<rect x="397.807" y="397.807" display="none" fill="none" width="800" height="800"/>
	<g display="none">
		<rect x="398.467" y="397.807" display="inline" fill="none" width="798.68" height="800"/>
		<path display="inline" fill="#BAC9D3" d="M359.018,966.871c2.317,4.342,7.721,5.982,12.062,3.664
			c2.736-1.458,4.395-4.139,4.676-7.009c0.724-5.906,4.209-11.38,9.855-14.394c9.211-4.917,20.671-1.434,25.587,7.776
			c4.916,9.211,1.431,20.669-7.78,25.585c-5.641,3.01-12.127,2.861-17.429,0.179c-0.097-0.047-0.2-0.09-0.291-0.14
			c-0.037-0.02-0.073-0.038-0.107-0.052c-2.462-1.178-5.431-1.214-8.025,0.169c-4.331,2.313-5.968,7.704-3.656,12.036
			c0.907,1.699,2.286,2.979,3.887,3.772l-0.005,0.017c10.335,5.279,22.99,5.597,34.005-0.284
			c17.884-9.546,24.64-31.777,15.096-49.658c-9.543-17.88-31.775-24.642-49.659-15.097c-10.755,5.741-17.466,16.079-19.042,27.295
			C357.74,962.74,357.973,964.913,359.018,966.871"/>
		<path display="inline" fill="#BAC9D3" d="M360.108,999.421c4.184-2.233,6.694-6.368,7.062-10.764
			c0.485-4.547,3.125-8.771,7.457-11.084c3.994-2.131,8.549-2.165,12.401-0.487c3.98,2.619,9.232,3.038,13.732,0.638
			c6.552-3.498,9.031-11.645,5.532-18.198c-3.497-6.551-11.645-9.025-18.196-5.529c-4.219,2.253-6.738,6.445-7.064,10.894
			c-0.57,4.425-3.189,8.517-7.424,10.776c-4.331,2.313-9.323,2.157-13.368,0.031l-0.04,0.049c-3.843-2.079-8.613-2.263-12.756-0.051
			c-6.551,3.497-9.03,11.643-5.533,18.194C345.409,1000.442,353.557,1002.918,360.108,999.421"/>
		<path display="inline" fill="#BAC9D3" d="M507.692,964.753c-2.318-4.342-7.721-5.981-12.063-3.664
			c-2.735,1.46-4.394,4.139-4.676,7.009c-0.724,5.906-4.209,11.382-9.855,14.394c-9.21,4.917-20.67,1.433-25.586-7.776
			c-4.916-9.211-1.43-20.668,7.78-25.585c5.64-3.011,12.126-2.861,17.429-0.179c0.097,0.047,0.2,0.09,0.292,0.141
			c0.036,0.02,0.072,0.035,0.106,0.051c2.462,1.176,5.432,1.216,8.025-0.169c4.331-2.313,5.968-7.704,3.655-12.036
			c-0.907-1.699-2.286-2.979-3.886-3.771l0.005-0.016c-10.336-5.28-22.989-5.597-34.005,0.282
			c-17.884,9.546-24.64,31.778-15.096,49.658c9.543,17.879,31.775,24.642,49.659,15.097c10.755-5.74,17.466-16.078,19.042-27.295
			C508.97,968.884,508.737,966.711,507.692,964.753"/>
		<path display="inline" fill="#BAC9D3" d="M506.602,932.203c-4.183,2.233-6.694,6.369-7.062,10.765
			c-0.484,4.546-3.125,8.771-7.456,11.083c-3.994,2.132-8.55,2.165-12.401,0.489c-3.981-2.62-9.233-3.04-13.733-0.639
			c-6.551,3.497-9.03,11.645-5.532,18.198c3.497,6.551,11.645,9.024,18.196,5.528c4.219-2.251,6.739-6.444,7.065-10.894
			c0.569-4.424,3.189-8.516,7.423-10.776c4.332-2.312,9.323-2.157,13.368-0.031l0.041-0.048c3.842,2.079,8.612,2.263,12.756,0.053
			c6.551-3.498,9.029-11.646,5.533-18.196C521.302,931.183,513.153,928.707,506.602,932.203"/>
		<path display="inline" fill="#BAC9D3" d="M530.91,966.871c2.317,4.342,7.721,5.982,12.063,3.664
			c2.736-1.458,4.394-4.139,4.676-7.009c0.723-5.906,4.209-11.38,9.855-14.394c9.21-4.917,20.67-1.434,25.586,7.776
			c4.917,9.211,1.431,20.669-7.78,25.585c-5.641,3.01-12.126,2.861-17.43,0.179c-0.096-0.047-0.199-0.09-0.29-0.14
			c-0.037-0.02-0.074-0.038-0.107-0.052c-2.461-1.178-5.432-1.214-8.025,0.169c-4.332,2.313-5.967,7.704-3.655,12.036
			c0.906,1.699,2.285,2.979,3.886,3.772l-0.006,0.017c10.338,5.279,22.99,5.597,34.006-0.284
			c17.883-9.546,24.64-31.777,15.095-49.658c-9.542-17.88-31.774-24.642-49.658-15.097c-10.755,5.741-17.465,16.079-19.043,27.295
			C529.633,962.74,529.865,964.913,530.91,966.871"/>
		<path display="inline" fill="#BAC9D3" d="M532,999.421c4.183-2.233,6.693-6.368,7.063-10.764
			c0.483-4.547,3.124-8.771,7.456-11.084c3.994-2.131,8.55-2.165,12.401-0.487c3.98,2.619,9.232,3.038,13.732,0.638
			c6.552-3.498,9.03-11.645,5.531-18.198c-3.496-6.551-11.643-9.025-18.195-5.529c-4.219,2.253-6.739,6.445-7.065,10.894
			c-0.569,4.425-3.189,8.517-7.423,10.776c-4.331,2.313-9.322,2.157-13.367,0.031l-0.042,0.049
			c-3.841-2.079-8.613-2.263-12.756-0.051c-6.551,3.497-9.03,11.643-5.533,18.194C517.3,1000.442,525.448,1002.918,532,999.421"/>
		<path display="inline" fill="#BAC9D3" d="M679.314,964.753c-2.317-4.342-7.721-5.981-12.063-3.664
			c-2.736,1.46-4.394,4.139-4.675,7.009c-0.725,5.906-4.209,11.382-9.856,14.394c-9.211,4.917-20.67,1.433-25.586-7.776
			c-4.916-9.211-1.431-20.668,7.78-25.585c5.639-3.011,12.126-2.861,17.429-0.179c0.098,0.047,0.2,0.09,0.291,0.141
			c0.037,0.02,0.073,0.035,0.108,0.051c2.461,1.176,5.431,1.216,8.024-0.169c4.33-2.313,5.968-7.704,3.655-12.036
			c-0.906-1.699-2.286-2.979-3.885-3.771l0.005-0.016c-10.337-5.28-22.99-5.597-34.006,0.282
			c-17.885,9.546-24.639,31.778-15.096,49.658c9.543,17.879,31.775,24.642,49.659,15.097c10.755-5.74,17.465-16.078,19.043-27.295
			C680.591,968.884,680.36,966.711,679.314,964.753"/>
		<path display="inline" fill="#BAC9D3" d="M678.225,932.203c-4.185,2.233-6.694,6.369-7.063,10.765
			c-0.484,4.546-3.124,8.771-7.456,11.083c-3.994,2.132-8.549,2.165-12.401,0.489c-3.98-2.62-9.232-3.04-13.732-0.639
			c-6.551,3.497-9.03,11.645-5.532,18.198c3.496,6.551,11.645,9.024,18.196,5.528c4.219-2.251,6.739-6.444,7.065-10.894
			c0.569-4.424,3.189-8.516,7.422-10.776c4.332-2.312,9.323-2.157,13.368-0.031l0.042-0.048c3.842,2.079,8.612,2.263,12.755,0.053
			c6.551-3.498,9.03-11.646,5.532-18.196C692.924,931.183,684.776,928.707,678.225,932.203"/>
		<path display="inline" fill="#BAC9D3" d="M702.531,966.871c2.317,4.342,7.721,5.982,12.063,3.664
			c2.736-1.458,4.394-4.139,4.675-7.009c0.725-5.906,4.209-11.38,9.855-14.394c9.211-4.917,20.671-1.434,25.588,7.776
			c4.915,9.211,1.429,20.669-7.78,25.585c-5.64,3.01-12.127,2.861-17.429,0.179c-0.097-0.047-0.201-0.09-0.293-0.14
			c-0.036-0.02-0.072-0.038-0.106-0.052c-2.462-1.178-5.432-1.214-8.024,0.169c-4.331,2.313-5.969,7.704-3.656,12.036
			c0.907,1.699,2.286,2.979,3.885,3.772l-0.004,0.017c10.336,5.279,22.989,5.597,34.004-0.284
			c17.885-9.546,24.64-31.777,15.097-49.658c-9.543-17.88-31.775-24.642-49.658-15.097c-10.756,5.741-17.467,16.079-19.042,27.295
			C701.253,962.74,701.485,964.913,702.531,966.871"/>
		<path display="inline" fill="#BAC9D3" d="M703.62,999.421c4.185-2.233,6.695-6.368,7.063-10.764
			c0.485-4.547,3.125-8.771,7.457-11.084c3.994-2.131,8.549-2.165,12.401-0.487c3.981,2.619,9.232,3.038,13.731,0.638
			c6.552-3.498,9.031-11.645,5.533-18.198c-3.497-6.551-11.645-9.025-18.196-5.529c-4.218,2.253-6.738,6.445-7.064,10.894
			c-0.57,4.425-3.19,8.517-7.424,10.776c-4.331,2.313-9.322,2.157-13.367,0.031l-0.041,0.049c-3.843-2.079-8.614-2.263-12.756-0.051
			c-6.551,3.497-9.03,11.643-5.532,18.194C688.922,1000.442,697.07,1002.918,703.62,999.421"/>
		<path display="inline" fill="#BAC9D3" d="M851.205,964.753c-2.316-4.342-7.721-5.981-12.062-3.664
			c-2.736,1.46-4.395,4.139-4.675,7.009c-0.726,5.906-4.211,11.382-9.857,14.394c-9.209,4.917-20.67,1.433-25.586-7.776
			c-4.917-9.211-1.429-20.668,7.781-25.585c5.639-3.011,12.126-2.861,17.429-0.179c0.096,0.047,0.199,0.09,0.29,0.141
			c0.038,0.02,0.074,0.035,0.108,0.051c2.461,1.176,5.431,1.216,8.023-0.169c4.332-2.313,5.97-7.704,3.656-12.036
			c-0.907-1.699-2.286-2.979-3.886-3.771l0.005-0.016c-10.336-5.28-22.99-5.597-34.004,0.282
			c-17.885,9.546-24.642,31.778-15.097,49.658c9.543,17.879,31.775,24.642,49.658,15.097c10.755-5.74,17.465-16.078,19.042-27.295
			C852.484,968.884,852.252,966.711,851.205,964.753"/>
		<path display="inline" fill="#BAC9D3" d="M850.116,932.203c-4.184,2.233-6.693,6.369-7.063,10.765
			c-0.484,4.546-3.125,8.771-7.456,11.083c-3.995,2.132-8.55,2.165-12.401,0.489c-3.98-2.62-9.232-3.04-13.732-0.639
			c-6.55,3.497-9.03,11.645-5.531,18.198c3.496,6.551,11.646,9.024,18.196,5.528c4.218-2.251,6.738-6.444,7.063-10.894
			c0.569-4.424,3.189-8.516,7.422-10.776c4.333-2.312,9.324-2.157,13.369-0.031l0.041-0.048c3.844,2.079,8.612,2.263,12.755,0.053
			c6.553-3.498,9.031-11.646,5.533-18.196C864.814,931.183,856.667,928.707,850.116,932.203"/>
		<path display="inline" fill="#BAC9D3" d="M874.422,966.871c2.317,4.342,7.722,5.982,12.063,3.664
			c2.736-1.458,4.394-4.139,4.676-7.009c0.725-5.906,4.208-11.38,9.856-14.394c9.209-4.917,20.67-1.434,25.586,7.776
			c4.915,9.211,1.43,20.669-7.781,25.585c-5.639,3.01-12.126,2.861-17.429,0.179c-0.097-0.047-0.199-0.09-0.29-0.14
			c-0.037-0.02-0.074-0.038-0.108-0.052c-2.462-1.178-5.431-1.214-8.023,0.169c-4.332,2.313-5.97,7.704-3.655,12.036
			c0.906,1.699,2.285,2.979,3.885,3.772l-0.005,0.017c10.336,5.279,22.99,5.597,34.006-0.284
			c17.883-9.546,24.641-31.777,15.095-49.658c-9.542-17.88-31.772-24.642-49.657-15.097c-10.756,5.741-17.468,16.079-19.042,27.295
			C873.144,962.74,873.376,964.913,874.422,966.871"/>
		<path display="inline" fill="#BAC9D3" d="M875.513,999.421c4.183-2.233,6.693-6.368,7.063-10.764
			c0.483-4.547,3.124-8.771,7.455-11.084c3.995-2.131,8.549-2.165,12.403-0.487c3.979,2.619,9.229,3.038,13.73,0.638
			c6.552-3.498,9.03-11.645,5.531-18.198c-3.496-6.551-11.646-9.025-18.195-5.529c-4.219,2.253-6.738,6.445-7.064,10.894
			c-0.569,4.425-3.189,8.517-7.424,10.776c-4.331,2.313-9.321,2.157-13.367,0.031l-0.041,0.049
			c-3.844-2.079-8.612-2.263-12.755-0.051c-6.553,3.497-9.03,11.643-5.534,18.194C860.814,1000.442,868.96,1002.918,875.513,999.421
			"/>
		<path display="inline" fill="#BAC9D3" d="M393.832,854.686c-4.184,2.233-6.694,6.369-7.063,10.765
			c-0.484,4.546-3.125,8.771-7.456,11.083c-3.995,2.133-8.55,2.165-12.401,0.488c-3.981-2.62-9.232-3.039-13.732-0.639
			c-6.552,3.498-9.031,11.645-5.533,18.199c3.497,6.55,11.645,9.024,18.197,5.529c4.218-2.252,6.738-6.445,7.064-10.895
			c0.57-4.425,3.189-8.517,7.424-10.775c4.331-2.313,9.322-2.157,13.368-0.032l0.04-0.049c3.842,2.079,8.613,2.263,12.756,0.053
			c6.551-3.499,9.03-11.645,5.533-18.195C408.531,853.663,400.381,851.189,393.832,854.686"/>
		<path display="inline" fill="#BAC9D3" d="M418.138,889.354c2.317,4.342,7.721,5.981,12.062,3.664
			c2.736-1.459,4.394-4.139,4.676-7.009c0.724-5.906,4.209-11.38,9.855-14.394c9.211-4.916,20.671-1.433,25.587,7.776
			c4.916,9.211,1.43,20.669-7.78,25.585c-5.64,3.01-12.127,2.861-17.429,0.179c-0.097-0.047-0.2-0.09-0.292-0.14
			c-0.036-0.02-0.072-0.037-0.106-0.053c-2.462-1.176-5.432-1.213-8.025,0.171c-4.331,2.312-5.968,7.703-3.656,12.034
			c0.907,1.7,2.286,2.979,3.886,3.773l-0.005,0.017c10.336,5.279,22.99,5.596,34.006-0.284c17.884-9.546,24.64-31.778,15.096-49.658
			c-9.543-17.88-31.775-24.641-49.659-15.096c-10.755,5.741-17.466,16.078-19.043,27.294
			C416.86,885.223,417.092,887.396,418.138,889.354"/>
		<path display="inline" fill="#BAC9D3" d="M419.228,921.903c4.184-2.232,6.694-6.368,7.062-10.764
			c0.484-4.547,3.125-8.771,7.456-11.084c3.995-2.131,8.55-2.164,12.402-0.487c3.98,2.618,9.232,3.038,13.732,0.637
			c6.551-3.497,9.03-11.643,5.532-18.197c-3.497-6.552-11.645-9.025-18.196-5.528c-4.219,2.251-6.738,6.444-7.065,10.893
			c-0.569,4.424-3.188,8.516-7.423,10.776c-4.331,2.313-9.323,2.157-13.368,0.031l-0.041,0.048
			c-3.842-2.079-8.612-2.261-12.756-0.051c-6.55,3.497-9.029,11.644-5.532,18.195C404.529,922.925,412.677,925.4,419.228,921.903"/>
		<path display="inline" fill="#BAC9D3" d="M566.813,887.235c-2.317-4.343-7.721-5.982-12.063-3.664
			c-2.735,1.46-4.394,4.139-4.676,7.009c-0.724,5.906-4.209,11.381-9.854,14.394c-9.211,4.917-20.672,1.433-25.589-7.776
			c-4.915-9.211-1.43-20.668,7.78-25.585c5.643-3.01,12.128-2.861,17.43-0.179c0.098,0.047,0.2,0.091,0.292,0.141
			c0.037,0.02,0.072,0.037,0.106,0.051c2.463,1.176,5.432,1.215,8.025-0.169c4.331-2.313,5.968-7.703,3.656-12.035
			c-0.906-1.7-2.285-2.979-3.886-3.773l0.004-0.017c-10.336-5.278-22.99-5.595-34.005,0.285
			c-17.884,9.545-24.64,31.776-15.096,49.657c9.543,17.88,31.776,24.643,49.659,15.097c10.756-5.741,17.467-16.078,19.042-27.295
			C568.091,891.366,567.858,889.193,566.813,887.235"/>
		<path display="inline" fill="#BAC9D3" d="M565.724,854.686c-4.184,2.233-6.695,6.369-7.063,10.765
			c-0.484,4.546-3.124,8.771-7.456,11.083c-3.994,2.133-8.55,2.165-12.401,0.488c-3.98-2.62-9.232-3.039-13.734-0.639
			c-6.551,3.498-9.03,11.645-5.531,18.199c3.496,6.55,11.645,9.024,18.197,5.529c4.218-2.252,6.738-6.445,7.064-10.895
			c0.57-4.425,3.19-8.517,7.424-10.775c4.331-2.313,9.322-2.157,13.367-0.032l0.041-0.049c3.842,2.079,8.613,2.263,12.756,0.053
			c6.55-3.499,9.03-11.645,5.532-18.195C580.423,853.663,572.273,851.189,565.724,854.686"/>
		<path display="inline" fill="#BAC9D3" d="M590.029,889.354c2.318,4.342,7.721,5.981,12.063,3.664
			c2.737-1.459,4.394-4.139,4.676-7.009c0.725-5.906,4.209-11.38,9.855-14.394c9.211-4.916,20.672-1.433,25.588,7.776
			c4.916,9.211,1.429,20.669-7.78,25.585c-5.642,3.01-12.127,2.861-17.429,0.179c-0.098-0.047-0.201-0.09-0.293-0.14
			c-0.036-0.02-0.072-0.037-0.106-0.053c-2.462-1.176-5.431-1.213-8.024,0.171c-4.331,2.312-5.969,7.703-3.656,12.034
			c0.907,1.7,2.286,2.979,3.885,3.773l-0.006,0.017c10.336,5.279,22.992,5.596,34.006-0.284
			c17.885-9.546,24.642-31.778,15.097-49.658c-9.544-17.88-31.775-24.641-49.659-15.096c-10.755,5.741-17.465,16.078-19.043,27.294
			C588.752,885.223,588.984,887.396,590.029,889.354"/>
		<path display="inline" fill="#BAC9D3" d="M591.119,921.903c4.185-2.232,6.695-6.368,7.063-10.764
			c0.485-4.547,3.125-8.771,7.457-11.084c3.994-2.131,8.549-2.164,12.401-0.487c3.979,2.618,9.231,3.038,13.731,0.637
			c6.552-3.497,9.032-11.643,5.534-18.197c-3.498-6.552-11.645-9.025-18.198-5.528c-4.218,2.251-6.737,6.444-7.063,10.893
			c-0.57,4.424-3.189,8.516-7.424,10.776c-4.331,2.313-9.323,2.157-13.368,0.031l-0.04,0.048c-3.843-2.079-8.614-2.261-12.757-0.051
			c-6.55,3.497-9.029,11.644-5.532,18.195C576.421,922.925,584.569,925.4,591.119,921.903"/>
		<path display="inline" fill="#BAC9D3" d="M738.435,887.235c-2.318-4.343-7.721-5.982-12.062-3.664
			c-2.736,1.46-4.395,4.139-4.677,7.009c-0.724,5.906-4.209,11.381-9.855,14.394c-9.211,4.917-20.67,1.433-25.586-7.776
			c-4.916-9.211-1.431-20.668,7.78-25.585c5.64-3.01,12.127-2.861,17.429-0.179c0.097,0.047,0.2,0.091,0.291,0.141
			c0.036,0.02,0.074,0.037,0.107,0.051c2.461,1.176,5.431,1.215,8.024-0.169c4.332-2.313,5.97-7.703,3.655-12.035
			c-0.905-1.7-2.285-2.979-3.885-3.773l0.006-0.017c-10.336-5.278-22.991-5.595-34.006,0.285
			c-17.884,9.545-24.64,31.776-15.096,49.657c9.542,17.88,31.774,24.643,49.659,15.097c10.754-5.741,17.466-16.078,19.041-27.295
			C739.712,891.366,739.479,889.193,738.435,887.235"/>
		<path display="inline" fill="#BAC9D3" d="M737.345,854.686c-4.184,2.233-6.695,6.369-7.063,10.765
			c-0.484,4.546-3.125,8.771-7.455,11.083c-3.995,2.133-8.551,2.165-12.403,0.488c-3.979-2.62-9.23-3.039-13.731-0.639
			c-6.552,3.498-9.031,11.645-5.532,18.199c3.496,6.55,11.644,9.024,18.196,5.529c4.219-2.252,6.737-6.445,7.064-10.895
			c0.569-4.425,3.189-8.517,7.423-10.775c4.332-2.313,9.323-2.157,13.369-0.032l0.039-0.049c3.843,2.079,8.614,2.263,12.757,0.053
			c6.552-3.499,9.029-11.645,5.533-18.195C752.042,853.663,743.897,851.189,737.345,854.686"/>
		<path display="inline" fill="#BAC9D3" d="M761.651,889.354c2.318,4.342,7.722,5.981,12.063,3.664
			c2.735-1.459,4.393-4.139,4.675-7.009c0.725-5.906,4.209-11.38,9.856-14.394c9.21-4.916,20.671-1.433,25.586,7.776
			c4.916,9.211,1.43,20.669-7.78,25.585c-5.64,3.01-12.127,2.861-17.429,0.179c-0.097-0.047-0.2-0.09-0.292-0.14
			c-0.036-0.02-0.072-0.037-0.106-0.053c-2.463-1.176-5.431-1.213-8.024,0.171c-4.332,2.312-5.97,7.703-3.657,12.034
			c0.907,1.7,2.287,2.979,3.887,3.773l-0.005,0.017c10.335,5.279,22.99,5.596,34.004-0.284
			c17.885-9.546,24.642-31.778,15.097-49.658c-9.544-17.88-31.774-24.641-49.659-15.096c-10.754,5.741-17.466,16.078-19.042,27.294
			C760.374,885.223,760.604,887.396,761.651,889.354"/>
		<path display="inline" fill="#BAC9D3" d="M762.741,921.903c4.184-2.232,6.694-6.368,7.062-10.764
			c0.485-4.547,3.125-8.771,7.456-11.084c3.996-2.131,8.551-2.164,12.402-0.487c3.979,2.618,9.231,3.038,13.732,0.637
			c6.551-3.497,9.031-11.643,5.532-18.197c-3.496-6.552-11.645-9.025-18.197-5.528c-4.217,2.251-6.738,6.444-7.063,10.893
			c-0.57,4.424-3.189,8.516-7.423,10.776c-4.333,2.313-9.324,2.157-13.369,0.031l-0.04,0.048c-3.843-2.079-8.613-2.261-12.756-0.051
			c-6.551,3.497-9.03,11.644-5.533,18.195C748.041,922.925,756.189,925.4,762.741,921.903"/>
		<path display="inline" fill="#BAC9D3" d="M910.326,887.235c-2.316-4.343-7.721-5.982-12.063-3.664
			c-2.736,1.46-4.395,4.139-4.676,7.009c-0.726,5.906-4.209,11.381-9.855,14.394c-9.211,4.917-20.67,1.433-25.587-7.776
			c-4.916-9.211-1.43-20.668,7.78-25.585c5.64-3.01,12.127-2.861,17.429-0.179c0.097,0.047,0.2,0.091,0.292,0.141
			c0.036,0.02,0.072,0.037,0.106,0.051c2.463,1.176,5.431,1.215,8.023-0.169c4.332-2.313,5.971-7.703,3.657-12.035
			c-0.907-1.7-2.287-2.979-3.885-3.773l0.004-0.017c-10.336-5.278-22.991-5.595-34.005,0.285
			c-17.885,9.545-24.642,31.776-15.098,49.657c9.542,17.88,31.775,24.643,49.659,15.097c10.755-5.741,17.466-16.078,19.042-27.295
			C911.603,891.366,911.373,889.193,910.326,887.235"/>
		<path display="inline" fill="#BAC9D3" d="M909.237,854.686c-4.186,2.233-6.695,6.369-7.063,10.765
			c-0.485,4.546-3.125,8.771-7.456,11.083c-3.996,2.133-8.549,2.165-12.402,0.488c-3.979-2.62-9.23-3.039-13.73-0.639
			c-6.552,3.498-9.032,11.645-5.533,18.199c3.497,6.55,11.646,9.024,18.197,5.529c4.217-2.252,6.738-6.445,7.063-10.895
			c0.571-4.425,3.191-8.517,7.424-10.775c4.332-2.313,9.323-2.157,13.368-0.032l0.04-0.049c3.844,2.079,8.614,2.263,12.757,0.053
			c6.551-3.499,9.029-11.645,5.532-18.195C923.935,853.663,915.788,851.189,909.237,854.686"/>
		<path display="inline" fill="#BAC9D3" d="M933.542,889.354c2.317,4.342,7.721,5.981,12.063,3.664
			c2.735-1.459,4.396-4.139,4.676-7.009c0.726-5.906,4.209-11.38,9.855-14.394c9.211-4.916,20.671-1.433,25.586,7.776
			c4.917,9.211,1.431,20.669-7.779,25.585c-5.641,3.01-12.127,2.861-17.43,0.179c-0.097-0.047-0.199-0.09-0.291-0.14
			c-0.036-0.02-0.073-0.037-0.107-0.053c-2.461-1.176-5.431-1.213-8.023,0.171c-4.331,2.312-5.971,7.703-3.657,12.034
			c0.907,1.7,2.288,2.979,3.887,3.773l-0.005,0.017c10.335,5.279,22.99,5.596,34.005-0.284
			c17.885-9.546,24.641-31.778,15.098-49.658s-31.775-24.641-49.66-15.096c-10.754,5.741-17.465,16.078-19.042,27.294
			C932.264,885.223,932.497,887.396,933.542,889.354"/>
		<path display="inline" fill="#BAC9D3" d="M934.631,921.903c4.186-2.232,6.695-6.368,7.063-10.764
			c0.484-4.547,3.125-8.771,7.457-11.084c3.994-2.131,8.549-2.164,12.401-0.487c3.979,2.618,9.23,3.038,13.73,0.637
			c6.552-3.497,9.031-11.643,5.533-18.197c-3.497-6.552-11.646-9.025-18.197-5.528c-4.218,2.251-6.738,6.444-7.063,10.893
			c-0.57,4.424-3.189,8.516-7.423,10.776c-4.332,2.313-9.323,2.157-13.368,0.031l-0.041,0.048
			c-3.843-2.079-8.613-2.261-12.756-0.051c-6.551,3.497-9.029,11.644-5.532,18.195C919.934,922.925,928.082,925.4,934.631,921.903"
			/>
		<path display="inline" fill="#BAC9D3" d="M359.018,815.942c2.317,4.343,7.721,5.982,12.062,3.666
			c2.736-1.46,4.395-4.142,4.676-7.011c0.724-5.906,4.209-11.381,9.855-14.395c9.211-4.915,20.671-1.432,25.587,7.779
			c4.916,9.209,1.431,20.667-7.78,25.582c-5.641,3.012-12.127,2.862-17.429,0.179c-0.097-0.047-0.2-0.09-0.291-0.14
			c-0.037-0.02-0.073-0.036-0.107-0.052c-2.462-1.176-5.431-1.214-8.025,0.171c-4.331,2.313-5.968,7.702-3.656,12.034
			c0.907,1.701,2.286,2.979,3.887,3.773l-0.005,0.016c10.335,5.28,22.99,5.596,34.005-0.284
			c17.884-9.546,24.64-31.776,15.096-49.658c-9.543-17.878-31.775-24.641-49.659-15.096c-10.755,5.741-17.466,16.077-19.042,27.294
			C357.74,811.812,357.973,813.984,359.018,815.942"/>
		<path display="inline" fill="#BAC9D3" d="M360.108,848.492c4.184-2.232,6.694-6.368,7.062-10.765
			c0.485-4.545,3.125-8.771,7.457-11.083c3.994-2.132,8.549-2.165,12.401-0.488c3.98,2.618,9.232,3.04,13.732,0.638
			c6.552-3.496,9.031-11.644,5.532-18.197c-3.497-6.552-11.645-9.026-18.196-5.53c-4.219,2.253-6.738,6.445-7.064,10.896
			c-0.57,4.423-3.189,8.515-7.424,10.774c-4.331,2.313-9.323,2.157-13.368,0.033l-0.04,0.047c-3.843-2.078-8.613-2.262-12.756-0.051
			c-6.551,3.496-9.03,11.643-5.533,18.195C345.409,849.515,353.557,851.988,360.108,848.492"/>
		<path display="inline" fill="#BAC9D3" d="M507.692,813.823c-2.318-4.341-7.721-5.98-12.063-3.664
			c-2.735,1.46-4.394,4.139-4.676,7.011c-0.724,5.904-4.209,11.38-9.855,14.394c-9.21,4.916-20.67,1.433-25.586-7.778
			c-4.916-9.21-1.43-20.668,7.78-25.585c5.64-3.01,12.126-2.861,17.429-0.177c0.097,0.046,0.2,0.09,0.292,0.139
			c0.036,0.02,0.072,0.037,0.106,0.051c2.462,1.177,5.432,1.215,8.025-0.169c4.331-2.311,5.968-7.703,3.655-12.034
			c-0.907-1.7-2.286-2.979-3.886-3.774l0.005-0.016c-10.336-5.279-22.989-5.596-34.005,0.284
			c-17.884,9.545-24.64,31.777-15.096,49.659c9.543,17.878,31.775,24.641,49.659,15.095c10.755-5.74,17.466-16.076,19.042-27.294
			C508.97,817.954,508.737,815.782,507.692,813.823"/>
		<path display="inline" fill="#BAC9D3" d="M506.602,781.274c-4.183,2.233-6.694,6.369-7.062,10.765
			c-0.484,4.547-3.125,8.771-7.456,11.082c-3.994,2.133-8.55,2.166-12.401,0.489c-3.981-2.619-9.233-3.04-13.733-0.638
			c-6.551,3.497-9.03,11.644-5.532,18.197c3.497,6.552,11.645,9.026,18.196,5.529c4.219-2.252,6.739-6.445,7.065-10.894
			c0.569-4.424,3.189-8.517,7.423-10.775c4.332-2.313,9.323-2.157,13.368-0.033l0.041-0.047c3.842,2.078,8.612,2.262,12.756,0.051
			c6.551-3.497,9.029-11.643,5.533-18.195C521.302,780.252,513.153,777.778,506.602,781.274"/>
		<path display="inline" fill="#BAC9D3" d="M530.91,815.942c2.317,4.343,7.721,5.982,12.063,3.666
			c2.736-1.46,4.394-4.142,4.676-7.011c0.723-5.906,4.209-11.381,9.855-14.395c9.21-4.915,20.67-1.432,25.586,7.779
			c4.917,9.209,1.431,20.667-7.78,25.582c-5.641,3.012-12.126,2.862-17.43,0.179c-0.096-0.047-0.199-0.09-0.29-0.14
			c-0.037-0.02-0.074-0.036-0.107-0.052c-2.461-1.176-5.432-1.214-8.025,0.171c-4.332,2.313-5.967,7.702-3.655,12.034
			c0.906,1.701,2.285,2.979,3.886,3.773l-0.006,0.016c10.338,5.28,22.99,5.596,34.006-0.284
			c17.883-9.546,24.64-31.776,15.095-49.658c-9.542-17.878-31.774-24.641-49.658-15.096c-10.755,5.741-17.465,16.077-19.043,27.294
			C529.633,811.812,529.865,813.984,530.91,815.942"/>
		<path display="inline" fill="#BAC9D3" d="M532,848.492c4.183-2.232,6.693-6.368,7.063-10.765
			c0.483-4.545,3.124-8.771,7.456-11.083c3.994-2.132,8.55-2.165,12.401-0.488c3.98,2.618,9.232,3.04,13.732,0.638
			c6.552-3.496,9.03-11.644,5.531-18.197c-3.496-6.552-11.643-9.026-18.195-5.53c-4.219,2.253-6.739,6.445-7.065,10.896
			c-0.569,4.423-3.189,8.515-7.423,10.774c-4.331,2.313-9.322,2.157-13.367,0.033l-0.042,0.047
			c-3.841-2.078-8.613-2.262-12.756-0.051c-6.551,3.496-9.03,11.643-5.533,18.195C517.3,849.515,525.448,851.988,532,848.492"/>
		<path display="inline" fill="#BAC9D3" d="M679.314,813.823c-2.317-4.341-7.721-5.98-12.063-3.664
			c-2.736,1.46-4.394,4.139-4.675,7.011c-0.725,5.904-4.209,11.38-9.856,14.394c-9.211,4.916-20.67,1.433-25.586-7.778
			c-4.916-9.21-1.431-20.668,7.78-25.585c5.639-3.01,12.126-2.861,17.429-0.177c0.098,0.046,0.2,0.09,0.291,0.139
			c0.037,0.02,0.073,0.037,0.108,0.051c2.461,1.177,5.431,1.215,8.024-0.169c4.33-2.311,5.968-7.703,3.655-12.034
			c-0.906-1.7-2.286-2.979-3.885-3.774l0.005-0.016c-10.337-5.279-22.99-5.596-34.006,0.284
			c-17.885,9.545-24.639,31.777-15.096,49.659c9.543,17.878,31.775,24.641,49.659,15.095c10.755-5.74,17.465-16.076,19.043-27.294
			C680.591,817.954,680.36,815.782,679.314,813.823"/>
		<path display="inline" fill="#BAC9D3" d="M678.225,781.274c-4.185,2.233-6.694,6.369-7.063,10.765
			c-0.484,4.547-3.124,8.771-7.456,11.082c-3.994,2.133-8.549,2.166-12.401,0.489c-3.98-2.619-9.232-3.04-13.732-0.638
			c-6.551,3.497-9.03,11.644-5.532,18.197c3.496,6.552,11.645,9.026,18.196,5.529c4.219-2.252,6.739-6.445,7.065-10.894
			c0.569-4.424,3.189-8.517,7.422-10.775c4.332-2.313,9.323-2.157,13.368-0.033l0.042-0.047c3.842,2.078,8.612,2.262,12.755,0.051
			c6.551-3.497,9.03-11.643,5.532-18.195C692.924,780.252,684.776,777.778,678.225,781.274"/>
		<path display="inline" fill="#BAC9D3" d="M702.531,815.942c2.317,4.343,7.721,5.982,12.063,3.666
			c2.736-1.46,4.394-4.142,4.675-7.011c0.725-5.906,4.209-11.381,9.855-14.395c9.211-4.915,20.671-1.432,25.588,7.779
			c4.915,9.209,1.429,20.667-7.78,25.582c-5.64,3.012-12.127,2.862-17.429,0.179c-0.097-0.047-0.201-0.09-0.293-0.14
			c-0.036-0.02-0.072-0.036-0.106-0.052c-2.462-1.176-5.432-1.214-8.024,0.171c-4.331,2.313-5.969,7.702-3.656,12.034
			c0.907,1.701,2.286,2.979,3.885,3.773l-0.004,0.016c10.336,5.28,22.989,5.596,34.004-0.284
			c17.885-9.546,24.64-31.776,15.097-49.658c-9.543-17.878-31.775-24.641-49.658-15.096c-10.756,5.741-17.467,16.077-19.042,27.294
			C701.253,811.812,701.485,813.984,702.531,815.942"/>
		<path display="inline" fill="#BAC9D3" d="M703.62,848.492c4.185-2.232,6.695-6.368,7.063-10.765
			c0.485-4.545,3.125-8.771,7.457-11.083c3.994-2.132,8.549-2.165,12.401-0.488c3.981,2.618,9.232,3.04,13.731,0.638
			c6.552-3.496,9.031-11.644,5.533-18.197c-3.497-6.552-11.645-9.026-18.196-5.53c-4.218,2.253-6.738,6.445-7.064,10.896
			c-0.57,4.423-3.19,8.515-7.424,10.774c-4.331,2.313-9.322,2.157-13.367,0.033l-0.041,0.047c-3.843-2.078-8.614-2.262-12.756-0.051
			c-6.551,3.496-9.03,11.643-5.532,18.195C688.922,849.515,697.07,851.988,703.62,848.492"/>
		<path display="inline" fill="#BAC9D3" d="M851.205,813.823c-2.316-4.341-7.721-5.98-12.062-3.664
			c-2.736,1.46-4.395,4.139-4.675,7.011c-0.726,5.904-4.211,11.38-9.857,14.394c-9.209,4.916-20.67,1.433-25.586-7.778
			c-4.917-9.21-1.429-20.668,7.781-25.585c5.639-3.01,12.126-2.861,17.429-0.177c0.096,0.046,0.199,0.09,0.29,0.139
			c0.038,0.02,0.074,0.037,0.108,0.051c2.461,1.177,5.431,1.215,8.023-0.169c4.332-2.311,5.97-7.703,3.656-12.034
			c-0.907-1.7-2.286-2.979-3.886-3.774l0.005-0.016c-10.336-5.279-22.99-5.596-34.004,0.284
			c-17.885,9.545-24.642,31.777-15.097,49.659c9.543,17.878,31.775,24.641,49.658,15.095c10.755-5.74,17.465-16.076,19.042-27.294
			C852.484,817.954,852.252,815.782,851.205,813.823"/>
		<path display="inline" fill="#BAC9D3" d="M850.116,781.274c-4.184,2.233-6.693,6.369-7.063,10.765
			c-0.484,4.547-3.125,8.771-7.456,11.082c-3.995,2.133-8.55,2.166-12.401,0.489c-3.98-2.619-9.232-3.04-13.732-0.638
			c-6.55,3.497-9.03,11.644-5.531,18.197c3.496,6.552,11.646,9.026,18.196,5.529c4.218-2.252,6.738-6.445,7.063-10.894
			c0.569-4.424,3.189-8.517,7.422-10.775c4.333-2.313,9.324-2.157,13.369-0.033l0.041-0.047c3.844,2.078,8.612,2.262,12.755,0.051
			c6.553-3.497,9.031-11.643,5.533-18.195C864.814,780.252,856.667,777.778,850.116,781.274"/>
		<path display="inline" fill="#BAC9D3" d="M874.422,815.942c2.317,4.343,7.722,5.982,12.063,3.666
			c2.736-1.46,4.394-4.142,4.676-7.011c0.725-5.906,4.208-11.381,9.856-14.395c9.209-4.915,20.67-1.432,25.586,7.779
			c4.915,9.209,1.43,20.667-7.781,25.582c-5.639,3.012-12.126,2.862-17.429,0.179c-0.097-0.047-0.199-0.09-0.29-0.14
			c-0.037-0.02-0.074-0.036-0.108-0.052c-2.462-1.176-5.431-1.214-8.023,0.171c-4.332,2.313-5.97,7.702-3.655,12.034
			c0.906,1.701,2.285,2.979,3.885,3.773l-0.005,0.016c10.336,5.28,22.99,5.596,34.006-0.284
			c17.883-9.546,24.641-31.776,15.095-49.658c-9.542-17.878-31.772-24.641-49.657-15.096c-10.756,5.741-17.468,16.077-19.042,27.294
			C873.144,811.812,873.376,813.984,874.422,815.942"/>
		<path display="inline" fill="#BAC9D3" d="M875.513,848.492c4.183-2.232,6.693-6.368,7.063-10.765
			c0.483-4.545,3.124-8.771,7.455-11.083c3.995-2.132,8.549-2.165,12.403-0.488c3.979,2.618,9.229,3.04,13.73,0.638
			c6.552-3.496,9.03-11.644,5.531-18.197c-3.496-6.552-11.646-9.026-18.195-5.53c-4.219,2.253-6.738,6.445-7.064,10.896
			c-0.569,4.423-3.189,8.515-7.424,10.774c-4.331,2.313-9.321,2.157-13.367,0.033l-0.041,0.047
			c-3.844-2.078-8.612-2.262-12.755-0.051c-6.553,3.496-9.03,11.643-5.534,18.195C860.814,849.515,868.96,851.988,875.513,848.492"
			/>
		<path display="inline" fill="#BAC9D3" d="M393.832,703.76c-4.184,2.231-6.694,6.365-7.063,10.761
			c-0.484,4.547-3.125,8.772-7.456,11.083c-3.995,2.133-8.55,2.165-12.401,0.489c-3.981-2.619-9.232-3.04-13.732-0.638
			c-6.552,3.497-9.031,11.643-5.533,18.198c3.497,6.551,11.645,9.025,18.197,5.528c4.218-2.251,6.738-6.443,7.064-10.893
			c0.57-4.424,3.189-8.515,7.424-10.776c4.331-2.313,9.322-2.157,13.368-0.032l0.04-0.047c3.842,2.077,8.613,2.261,12.756,0.051
			c6.551-3.496,9.03-11.644,5.533-18.195C408.531,702.739,400.381,700.264,393.832,703.76"/>
		<path display="inline" fill="#BAC9D3" d="M418.138,738.425c2.317,4.342,7.721,5.982,12.062,3.664
			c2.736-1.46,4.394-4.139,4.676-7.01c0.724-5.905,4.209-11.38,9.855-14.394c9.211-4.916,20.671-1.433,25.587,7.778
			c4.916,9.21,1.43,20.668-7.78,25.584c-5.64,3.011-12.127,2.862-17.429,0.179c-0.097-0.047-0.2-0.09-0.292-0.14
			c-0.036-0.02-0.072-0.037-0.106-0.051c-2.462-1.177-5.432-1.215-8.025,0.169c-4.331,2.313-5.968,7.704-3.656,12.034
			c0.907,1.702,2.286,2.979,3.886,3.774l-0.005,0.016c10.336,5.279,22.99,5.596,34.006-0.283
			c17.884-9.547,24.64-31.778,15.096-49.658c-9.543-17.875-31.775-24.639-49.659-15.094c-10.755,5.738-17.466,16.074-19.043,27.291
			C416.86,734.294,417.092,736.466,418.138,738.425"/>
		<path display="inline" fill="#BAC9D3" d="M419.228,770.975c4.184-2.233,6.694-6.369,7.062-10.765
			c0.484-4.545,3.125-8.771,7.456-11.082c3.995-2.132,8.55-2.166,12.402-0.489c3.98,2.62,9.232,3.04,13.732,0.637
			c6.551-3.496,9.03-11.643,5.532-18.197c-3.497-6.55-11.645-9.026-18.196-5.529c-4.219,2.252-6.738,6.445-7.065,10.894
			c-0.569,4.425-3.188,8.516-7.423,10.777c-4.331,2.311-9.323,2.157-13.368,0.031l-0.041,0.048
			c-3.842-2.079-8.612-2.263-12.756-0.052c-6.55,3.498-9.029,11.643-5.532,18.195C404.529,771.997,412.677,774.471,419.228,770.975"
			/>
		<path display="inline" fill="#BAC9D3" d="M566.813,736.307c-2.317-4.342-7.721-5.981-12.063-3.665
			c-2.735,1.46-4.394,4.14-4.676,7.01c-0.724,5.906-4.209,11.38-9.854,14.394c-9.211,4.917-20.672,1.432-25.589-7.779
			c-4.915-9.209-1.43-20.667,7.78-25.583c5.643-3.011,12.128-2.862,17.43-0.178c0.098,0.047,0.2,0.09,0.292,0.139
			c0.037,0.02,0.072,0.037,0.106,0.051c2.463,1.177,5.432,1.215,8.025-0.169c4.331-2.312,5.968-7.703,3.656-12.033
			c-0.906-1.701-2.285-2.978-3.886-3.772l0.004-0.016c-10.336-5.278-22.99-5.595-34.005,0.284
			c-17.884,9.543-24.64,31.774-15.096,49.655c9.543,17.88,31.776,24.642,49.659,15.096c10.756-5.74,17.467-16.077,19.042-27.294
			C568.091,740.437,567.858,738.265,566.813,736.307"/>
		<path display="inline" fill="#BAC9D3" d="M565.724,703.76c-4.184,2.231-6.695,6.365-7.063,10.761
			c-0.484,4.547-3.124,8.772-7.456,11.083c-3.994,2.133-8.55,2.165-12.401,0.489c-3.98-2.619-9.232-3.04-13.734-0.638
			c-6.551,3.497-9.03,11.643-5.531,18.198c3.496,6.551,11.645,9.025,18.197,5.528c4.218-2.251,6.738-6.443,7.064-10.893
			c0.57-4.424,3.19-8.515,7.424-10.776c4.331-2.313,9.322-2.157,13.367-0.032l0.041-0.047c3.842,2.077,8.613,2.261,12.756,0.051
			c6.55-3.496,9.03-11.644,5.532-18.195C580.423,702.739,572.273,700.264,565.724,703.76"/>
		<path display="inline" fill="#BAC9D3" d="M590.029,738.425c2.318,4.342,7.721,5.982,12.063,3.664
			c2.737-1.46,4.394-4.139,4.676-7.01c0.725-5.905,4.209-11.38,9.855-14.394c9.211-4.916,20.672-1.433,25.588,7.778
			c4.916,9.21,1.429,20.668-7.78,25.584c-5.642,3.011-12.127,2.862-17.429,0.179c-0.098-0.047-0.201-0.09-0.293-0.14
			c-0.036-0.02-0.072-0.037-0.106-0.051c-2.462-1.177-5.431-1.215-8.024,0.169c-4.331,2.313-5.969,7.704-3.656,12.034
			c0.907,1.702,2.286,2.979,3.885,3.774l-0.006,0.016c10.336,5.279,22.992,5.596,34.006-0.283
			c17.885-9.547,24.642-31.778,15.097-49.658c-9.544-17.875-31.775-24.639-49.659-15.094c-10.755,5.738-17.465,16.074-19.043,27.291
			C588.752,734.294,588.984,736.466,590.029,738.425"/>
		<path display="inline" fill="#BAC9D3" d="M591.119,770.975c4.185-2.233,6.695-6.369,7.063-10.765
			c0.485-4.545,3.125-8.771,7.457-11.082c3.994-2.132,8.549-2.166,12.401-0.489c3.979,2.62,9.231,3.04,13.731,0.637
			c6.552-3.496,9.032-11.643,5.534-18.197c-3.498-6.55-11.645-9.026-18.198-5.529c-4.218,2.252-6.737,6.445-7.063,10.894
			c-0.57,4.425-3.189,8.516-7.424,10.777c-4.331,2.311-9.323,2.157-13.368,0.031l-0.04,0.048c-3.843-2.079-8.614-2.263-12.757-0.052
			c-6.55,3.498-9.029,11.643-5.532,18.195C576.421,771.997,584.569,774.471,591.119,770.975"/>
		<path display="inline" fill="#BAC9D3" d="M738.435,736.307c-2.318-4.342-7.721-5.981-12.062-3.665
			c-2.736,1.46-4.395,4.14-4.677,7.01c-0.724,5.906-4.209,11.38-9.855,14.394c-9.211,4.917-20.67,1.432-25.586-7.779
			c-4.916-9.209-1.431-20.667,7.78-25.583c5.64-3.011,12.127-2.862,17.429-0.178c0.097,0.047,0.2,0.09,0.291,0.139
			c0.036,0.02,0.074,0.037,0.107,0.051c2.461,1.177,5.431,1.215,8.024-0.169c4.332-2.312,5.97-7.703,3.655-12.033
			c-0.905-1.701-2.285-2.978-3.885-3.772l0.006-0.016c-10.336-5.278-22.991-5.595-34.006,0.284
			c-17.884,9.543-24.64,31.774-15.096,49.655c9.542,17.88,31.774,24.642,49.659,15.096c10.754-5.74,17.466-16.077,19.041-27.294
			C739.712,740.437,739.479,738.265,738.435,736.307"/>
		<path display="inline" fill="#BAC9D3" d="M737.345,703.76c-4.184,2.231-6.695,6.365-7.063,10.761
			c-0.484,4.547-3.125,8.772-7.455,11.083c-3.995,2.133-8.551,2.165-12.403,0.489c-3.979-2.619-9.23-3.04-13.731-0.638
			c-6.552,3.497-9.031,11.643-5.532,18.198c3.496,6.551,11.644,9.025,18.196,5.528c4.219-2.251,6.737-6.443,7.064-10.893
			c0.569-4.424,3.189-8.515,7.423-10.776c4.332-2.313,9.323-2.157,13.369-0.032l0.039-0.047c3.843,2.077,8.614,2.261,12.757,0.051
			c6.552-3.496,9.029-11.644,5.533-18.195C752.042,702.739,743.897,700.264,737.345,703.76"/>
		<path display="inline" fill="#BAC9D3" d="M761.651,738.425c2.318,4.342,7.722,5.982,12.063,3.664
			c2.735-1.46,4.393-4.139,4.675-7.01c0.725-5.905,4.209-11.38,9.856-14.394c9.21-4.916,20.671-1.433,25.586,7.778
			c4.916,9.21,1.43,20.668-7.78,25.584c-5.64,3.011-12.127,2.862-17.429,0.179c-0.097-0.047-0.2-0.09-0.292-0.14
			c-0.036-0.02-0.072-0.037-0.106-0.051c-2.463-1.177-5.431-1.215-8.024,0.169c-4.332,2.313-5.97,7.704-3.657,12.034
			c0.907,1.702,2.287,2.979,3.887,3.774l-0.005,0.016c10.335,5.279,22.99,5.596,34.004-0.283
			c17.885-9.547,24.642-31.778,15.097-49.658c-9.544-17.875-31.774-24.639-49.659-15.094c-10.754,5.738-17.466,16.074-19.042,27.291
			C760.374,734.294,760.604,736.466,761.651,738.425"/>
		<path display="inline" fill="#BAC9D3" d="M762.741,770.975c4.184-2.233,6.694-6.369,7.062-10.765
			c0.485-4.545,3.125-8.771,7.456-11.082c3.996-2.132,8.551-2.166,12.402-0.489c3.979,2.62,9.231,3.04,13.732,0.637
			c6.551-3.496,9.031-11.643,5.532-18.197c-3.496-6.55-11.645-9.026-18.197-5.529c-4.217,2.252-6.738,6.445-7.063,10.894
			c-0.57,4.425-3.189,8.516-7.423,10.777c-4.333,2.311-9.324,2.157-13.369,0.031l-0.04,0.048c-3.843-2.079-8.613-2.263-12.756-0.052
			c-6.551,3.498-9.03,11.643-5.533,18.195C748.041,771.997,756.189,774.471,762.741,770.975"/>
		<path display="inline" fill="#BAC9D3" d="M910.326,736.307c-2.316-4.342-7.721-5.981-12.063-3.665
			c-2.736,1.46-4.395,4.14-4.676,7.01c-0.726,5.906-4.209,11.38-9.855,14.394c-9.211,4.917-20.67,1.432-25.587-7.779
			c-4.916-9.209-1.43-20.667,7.78-25.583c5.64-3.011,12.127-2.862,17.429-0.178c0.097,0.047,0.2,0.09,0.292,0.139
			c0.036,0.02,0.072,0.037,0.106,0.051c2.463,1.177,5.431,1.215,8.023-0.169c4.332-2.312,5.971-7.703,3.657-12.033
			c-0.907-1.701-2.287-2.978-3.885-3.772l0.004-0.016c-10.336-5.278-22.991-5.595-34.005,0.284
			c-17.885,9.543-24.642,31.774-15.098,49.655c9.542,17.88,31.775,24.642,49.659,15.096c10.755-5.74,17.466-16.077,19.042-27.294
			C911.603,740.437,911.373,738.265,910.326,736.307"/>
		<path display="inline" fill="#BAC9D3" d="M909.237,703.76c-4.186,2.231-6.695,6.365-7.063,10.761
			c-0.485,4.547-3.125,8.772-7.456,11.083c-3.996,2.133-8.549,2.165-12.402,0.489c-3.979-2.619-9.23-3.04-13.73-0.638
			c-6.552,3.497-9.032,11.643-5.533,18.198c3.497,6.551,11.646,9.025,18.197,5.528c4.217-2.251,6.738-6.443,7.063-10.893
			c0.571-4.424,3.191-8.515,7.424-10.776c4.332-2.313,9.323-2.157,13.368-0.032l0.04-0.047c3.844,2.077,8.614,2.261,12.757,0.051
			c6.551-3.496,9.029-11.644,5.532-18.195C923.935,702.739,915.788,700.264,909.237,703.76"/>
		<path display="inline" fill="#BAC9D3" d="M933.542,738.425c2.317,4.342,7.721,5.982,12.063,3.664
			c2.735-1.46,4.396-4.139,4.676-7.01c0.726-5.905,4.209-11.38,9.855-14.394c9.211-4.916,20.671-1.433,25.586,7.778
			c4.917,9.21,1.431,20.668-7.779,25.584c-5.641,3.011-12.127,2.862-17.43,0.179c-0.097-0.047-0.199-0.09-0.291-0.14
			c-0.036-0.02-0.073-0.037-0.107-0.051c-2.461-1.177-5.431-1.215-8.023,0.169c-4.331,2.313-5.971,7.704-3.657,12.034
			c0.907,1.702,2.288,2.979,3.887,3.774l-0.005,0.016c10.335,5.279,22.99,5.596,34.005-0.283
			c17.885-9.547,24.641-31.778,15.098-49.658c-9.543-17.875-31.775-24.639-49.66-15.094c-10.754,5.738-17.465,16.074-19.042,27.291
			C932.264,734.294,932.497,736.466,933.542,738.425"/>
		<path display="inline" fill="#BAC9D3" d="M934.631,770.975c4.186-2.233,6.695-6.369,7.063-10.765
			c0.484-4.545,3.125-8.771,7.457-11.082c3.994-2.132,8.549-2.166,12.401-0.489c3.979,2.62,9.23,3.04,13.73,0.637
			c6.552-3.496,9.031-11.643,5.533-18.197c-3.497-6.55-11.646-9.026-18.197-5.529c-4.218,2.252-6.738,6.445-7.063,10.894
			c-0.57,4.425-3.189,8.516-7.423,10.777c-4.332,2.311-9.323,2.157-13.368,0.031l-0.041,0.048
			c-3.843-2.079-8.613-2.263-12.756-0.052c-6.551,3.498-9.029,11.643-5.532,18.195C919.934,771.997,928.082,774.471,934.631,770.975
			"/>
		<path display="inline" fill="#BAC9D3" d="M359.018,663.547c2.317,4.342,7.721,5.982,12.062,3.664
			c2.736-1.46,4.395-4.139,4.676-7.009c0.724-5.906,4.209-11.381,9.855-14.394c9.211-4.917,20.671-1.433,25.587,7.777
			c4.916,9.211,1.431,20.669-7.78,25.585c-5.641,3.01-12.127,2.861-17.429,0.178c-0.097-0.047-0.2-0.09-0.291-0.139
			c-0.037-0.02-0.073-0.038-0.107-0.052c-2.462-1.177-5.431-1.215-8.025,0.169c-4.331,2.313-5.968,7.703-3.656,12.035
			c0.907,1.701,2.286,2.978,3.887,3.773l-0.005,0.016c10.335,5.281,22.99,5.598,34.005-0.283
			c17.884-9.546,24.64-31.778,15.096-49.658c-9.543-17.88-31.775-24.642-49.659-15.097c-10.755,5.741-17.466,16.078-19.042,27.295
			C357.74,659.417,357.973,661.589,359.018,663.547"/>
		<path display="inline" fill="#BAC9D3" d="M360.108,696.097c4.184-2.233,6.694-6.369,7.062-10.764
			c0.485-4.546,3.125-8.772,7.457-11.083c3.994-2.132,8.549-2.166,12.401-0.489c3.98,2.62,9.232,3.04,13.732,0.638
			c6.552-3.497,9.031-11.643,5.532-18.197c-3.497-6.551-11.645-9.027-18.196-5.529c-4.219,2.251-6.738,6.444-7.064,10.893
			c-0.57,4.425-3.189,8.516-7.424,10.777c-4.331,2.311-9.323,2.156-13.368,0.031l-0.04,0.048c-3.843-2.079-8.613-2.263-12.756-0.052
			c-6.551,3.498-9.03,11.644-5.533,18.196C345.409,697.119,353.557,699.593,360.108,696.097"/>
		<path display="inline" fill="#BAC9D3" d="M507.692,661.429c-2.318-4.342-7.721-5.982-12.063-3.665
			c-2.735,1.46-4.394,4.139-4.676,7.01c-0.724,5.906-4.209,11.38-9.855,14.393c-9.21,4.917-20.67,1.433-25.586-7.777
			c-4.916-9.211-1.43-20.668,7.78-25.584c5.64-3.011,12.126-2.861,17.429-0.179c0.097,0.047,0.2,0.09,0.292,0.14
			c0.036,0.019,0.072,0.037,0.106,0.052c2.462,1.176,5.432,1.214,8.025-0.17c4.331-2.312,5.968-7.703,3.655-12.035
			c-0.907-1.7-2.286-2.979-3.886-3.773l0.005-0.016c-10.336-5.28-22.989-5.596-34.005,0.284
			c-17.884,9.546-24.64,31.777-15.096,49.658c9.543,17.879,31.775,24.641,49.659,15.095c10.755-5.739,17.466-16.077,19.042-27.293
			C508.97,665.559,508.737,663.387,507.692,661.429"/>
		<path display="inline" fill="#BAC9D3" d="M506.602,628.879c-4.183,2.233-6.694,6.369-7.062,10.764
			c-0.484,4.546-3.125,8.771-7.456,11.084c-3.994,2.131-8.55,2.165-12.401,0.488c-3.981-2.62-9.233-3.04-13.733-0.638
			c-6.551,3.497-9.03,11.643-5.532,18.197c3.497,6.552,11.645,9.026,18.196,5.53c4.219-2.252,6.739-6.445,7.065-10.894
			c0.569-4.424,3.189-8.516,7.423-10.777c4.332-2.312,9.323-2.157,13.368-0.031l0.041-0.048c3.842,2.079,8.612,2.263,12.756,0.051
			c6.551-3.496,9.029-11.643,5.533-18.194C521.302,627.857,513.153,625.382,506.602,628.879"/>
		<path display="inline" fill="#BAC9D3" d="M530.91,663.547c2.317,4.342,7.721,5.982,12.063,3.664
			c2.736-1.46,4.394-4.139,4.676-7.009c0.723-5.906,4.209-11.381,9.855-14.394c9.21-4.917,20.67-1.433,25.586,7.777
			c4.917,9.211,1.431,20.669-7.78,25.585c-5.641,3.01-12.126,2.861-17.43,0.178c-0.096-0.047-0.199-0.09-0.29-0.139
			c-0.037-0.02-0.074-0.038-0.107-0.052c-2.461-1.177-5.432-1.215-8.025,0.169c-4.332,2.313-5.967,7.703-3.655,12.035
			c0.906,1.701,2.285,2.978,3.886,3.773l-0.006,0.016c10.338,5.281,22.99,5.598,34.006-0.283
			c17.883-9.546,24.64-31.778,15.095-49.658c-9.542-17.88-31.774-24.642-49.658-15.097c-10.755,5.741-17.465,16.078-19.043,27.295
			C529.633,659.417,529.865,661.589,530.91,663.547"/>
		<path display="inline" fill="#BAC9D3" d="M532,696.097c4.183-2.233,6.693-6.369,7.063-10.764
			c0.483-4.546,3.124-8.772,7.456-11.083c3.994-2.132,8.55-2.166,12.401-0.489c3.98,2.62,9.232,3.04,13.732,0.638
			c6.552-3.497,9.03-11.643,5.531-18.197c-3.496-6.551-11.643-9.027-18.195-5.529c-4.219,2.251-6.739,6.444-7.065,10.893
			c-0.569,4.425-3.189,8.516-7.423,10.777c-4.331,2.311-9.322,2.156-13.367,0.031l-0.042,0.048
			c-3.841-2.079-8.613-2.263-12.756-0.052c-6.551,3.498-9.03,11.644-5.533,18.196C517.3,697.119,525.448,699.593,532,696.097"/>
		<path display="inline" fill="#BAC9D3" d="M679.314,661.429c-2.317-4.342-7.721-5.982-12.063-3.665
			c-2.736,1.46-4.394,4.139-4.675,7.01c-0.725,5.906-4.209,11.38-9.856,14.393c-9.211,4.917-20.67,1.433-25.586-7.777
			c-4.916-9.211-1.431-20.668,7.78-25.584c5.639-3.011,12.126-2.861,17.429-0.179c0.098,0.047,0.2,0.09,0.291,0.14
			c0.037,0.019,0.073,0.037,0.108,0.052c2.461,1.176,5.431,1.214,8.024-0.17c4.33-2.312,5.968-7.703,3.655-12.035
			c-0.906-1.7-2.286-2.979-3.885-3.773l0.005-0.016c-10.337-5.28-22.99-5.596-34.006,0.284
			c-17.885,9.546-24.639,31.777-15.096,49.658c9.543,17.879,31.775,24.641,49.659,15.095c10.755-5.739,17.465-16.077,19.043-27.293
			C680.591,665.559,680.36,663.387,679.314,661.429"/>
		<path display="inline" fill="#BAC9D3" d="M678.225,628.879c-4.185,2.233-6.694,6.369-7.063,10.764
			c-0.484,4.546-3.124,8.771-7.456,11.084c-3.994,2.131-8.549,2.165-12.401,0.488c-3.98-2.62-9.232-3.04-13.732-0.638
			c-6.551,3.497-9.03,11.643-5.532,18.197c3.496,6.552,11.645,9.026,18.196,5.53c4.219-2.252,6.739-6.445,7.065-10.894
			c0.569-4.424,3.189-8.516,7.422-10.777c4.332-2.312,9.323-2.157,13.368-0.031l0.042-0.048c3.842,2.079,8.612,2.263,12.755,0.051
			c6.551-3.496,9.03-11.643,5.532-18.194C692.924,627.857,684.776,625.382,678.225,628.879"/>
		<path display="inline" fill="#BAC9D3" d="M702.531,663.547c2.317,4.342,7.721,5.982,12.063,3.664
			c2.736-1.46,4.394-4.139,4.675-7.009c0.725-5.906,4.209-11.381,9.855-14.394c9.211-4.917,20.671-1.433,25.588,7.777
			c4.915,9.211,1.429,20.669-7.78,25.585c-5.64,3.01-12.127,2.861-17.429,0.178c-0.097-0.047-0.201-0.09-0.293-0.139
			c-0.036-0.02-0.072-0.038-0.106-0.052c-2.462-1.177-5.432-1.215-8.024,0.169c-4.331,2.313-5.969,7.703-3.656,12.035
			c0.907,1.701,2.286,2.978,3.885,3.773l-0.004,0.016c10.336,5.281,22.989,5.598,34.004-0.283
			c17.885-9.546,24.64-31.778,15.097-49.658c-9.543-17.88-31.775-24.642-49.658-15.097c-10.756,5.741-17.467,16.078-19.042,27.295
			C701.253,659.417,701.485,661.589,702.531,663.547"/>
		<path display="inline" fill="#BAC9D3" d="M703.62,696.097c4.185-2.233,6.695-6.369,7.063-10.764
			c0.485-4.546,3.125-8.772,7.457-11.083c3.994-2.132,8.549-2.166,12.401-0.489c3.981,2.62,9.232,3.04,13.731,0.638
			c6.552-3.497,9.031-11.643,5.533-18.197c-3.497-6.551-11.645-9.027-18.196-5.529c-4.218,2.251-6.738,6.444-7.064,10.893
			c-0.57,4.425-3.19,8.516-7.424,10.777c-4.331,2.311-9.322,2.156-13.367,0.031l-0.041,0.048c-3.843-2.079-8.614-2.263-12.756-0.052
			c-6.551,3.498-9.03,11.644-5.532,18.196C688.922,697.119,697.07,699.593,703.62,696.097"/>
		<path display="inline" fill="#BAC9D3" d="M851.205,661.429c-2.316-4.342-7.721-5.982-12.062-3.665
			c-2.736,1.46-4.395,4.139-4.675,7.01c-0.726,5.906-4.211,11.38-9.857,14.393c-9.209,4.917-20.67,1.433-25.586-7.777
			c-4.917-9.211-1.429-20.668,7.781-25.584c5.639-3.011,12.126-2.861,17.429-0.179c0.096,0.047,0.199,0.09,0.29,0.14
			c0.038,0.019,0.074,0.037,0.108,0.052c2.461,1.176,5.431,1.214,8.023-0.17c4.332-2.312,5.97-7.703,3.656-12.035
			c-0.907-1.7-2.286-2.979-3.886-3.773l0.005-0.016c-10.336-5.28-22.99-5.596-34.004,0.284
			c-17.885,9.546-24.642,31.777-15.097,49.658c9.543,17.879,31.775,24.641,49.658,15.095c10.755-5.739,17.465-16.077,19.042-27.293
			C852.484,665.559,852.252,663.387,851.205,661.429"/>
		<path display="inline" fill="#BAC9D3" d="M850.116,628.879c-4.184,2.233-6.693,6.369-7.063,10.764
			c-0.484,4.546-3.125,8.771-7.456,11.084c-3.995,2.131-8.55,2.165-12.401,0.488c-3.98-2.62-9.232-3.04-13.732-0.638
			c-6.55,3.497-9.03,11.643-5.531,18.197c3.496,6.552,11.646,9.026,18.196,5.53c4.218-2.252,6.738-6.445,7.063-10.894
			c0.569-4.424,3.189-8.516,7.422-10.777c4.333-2.312,9.324-2.157,13.369-0.031l0.041-0.048c3.844,2.079,8.612,2.263,12.755,0.051
			c6.553-3.496,9.031-11.643,5.533-18.194C864.814,627.857,856.667,625.382,850.116,628.879"/>
		<path display="inline" fill="#BAC9D3" d="M874.422,663.547c2.317,4.342,7.722,5.982,12.063,3.664
			c2.736-1.46,4.394-4.139,4.676-7.009c0.725-5.906,4.208-11.381,9.856-14.394c9.209-4.917,20.67-1.433,25.586,7.777
			c4.915,9.211,1.43,20.669-7.781,25.585c-5.639,3.01-12.126,2.861-17.429,0.178c-0.097-0.047-0.199-0.09-0.29-0.139
			c-0.037-0.02-0.074-0.038-0.108-0.052c-2.462-1.177-5.431-1.215-8.023,0.169c-4.332,2.313-5.97,7.703-3.655,12.035
			c0.906,1.701,2.285,2.978,3.885,3.773l-0.005,0.016c10.336,5.281,22.99,5.598,34.006-0.283
			c17.883-9.546,24.641-31.778,15.095-49.658c-9.542-17.88-31.772-24.642-49.657-15.097c-10.756,5.741-17.468,16.078-19.042,27.295
			C873.144,659.417,873.376,661.589,874.422,663.547"/>
		<path display="inline" fill="#BAC9D3" d="M875.513,696.097c4.183-2.233,6.693-6.369,7.063-10.764
			c0.483-4.546,3.124-8.772,7.455-11.083c3.995-2.132,8.549-2.166,12.403-0.489c3.979,2.62,9.229,3.04,13.73,0.638
			c6.552-3.497,9.03-11.643,5.531-18.197c-3.496-6.551-11.646-9.027-18.195-5.529c-4.219,2.251-6.738,6.444-7.064,10.893
			c-0.569,4.425-3.189,8.516-7.424,10.777c-4.331,2.311-9.321,2.156-13.367,0.031l-0.041,0.048
			c-3.844-2.079-8.612-2.263-12.755-0.052c-6.553,3.498-9.03,11.644-5.534,18.196C860.814,697.119,868.96,699.593,875.513,696.097"
			/>
		<path display="inline" fill="#BAC9D3" d="M393.832,551.362c-4.184,2.233-6.694,6.369-7.063,10.764
			c-0.484,4.546-3.125,8.772-7.456,11.083c-3.995,2.132-8.55,2.166-12.401,0.488c-3.981-2.619-9.232-3.039-13.732-0.637
			c-6.552,3.497-9.031,11.643-5.533,18.197c3.497,6.551,11.645,9.026,18.197,5.529c4.218-2.252,6.738-6.444,7.064-10.893
			c0.57-4.425,3.189-8.516,7.424-10.777c4.331-2.312,9.322-2.157,13.368-0.031l0.04-0.048c3.842,2.079,8.613,2.263,12.756,0.052
			c6.551-3.498,9.03-11.644,5.533-18.196C408.531,550.34,400.381,547.866,393.832,551.362"/>
		<path display="inline" fill="#BAC9D3" d="M418.138,586.029c2.317,4.342,7.721,5.982,12.062,3.665
			c2.736-1.46,4.394-4.139,4.676-7.01c0.724-5.906,4.209-11.381,9.855-14.393c9.211-4.917,20.671-1.434,25.587,7.777
			s1.43,20.668-7.78,25.584c-5.64,3.011-12.127,2.861-17.429,0.179c-0.097-0.047-0.2-0.09-0.292-0.14
			c-0.036-0.019-0.072-0.037-0.106-0.052c-2.462-1.176-5.432-1.214-8.025,0.17c-4.331,2.312-5.968,7.703-3.656,12.035
			c0.907,1.7,2.286,2.979,3.886,3.773l-0.005,0.016c10.336,5.28,22.99,5.596,34.006-0.284c17.884-9.546,24.64-31.777,15.096-49.658
			c-9.543-17.879-31.775-24.641-49.659-15.096c-10.755,5.74-17.466,16.078-19.043,27.294
			C416.86,581.899,417.092,584.071,418.138,586.029"/>
		<path display="inline" fill="#BAC9D3" d="M419.228,618.579c4.184-2.233,6.694-6.369,7.062-10.764
			c0.484-4.546,3.125-8.771,7.456-11.084c3.995-2.131,8.55-2.165,12.402-0.488c3.98,2.62,9.232,3.04,13.732,0.638
			c6.551-3.497,9.03-11.644,5.532-18.197c-3.497-6.552-11.645-9.026-18.196-5.53c-4.219,2.252-6.738,6.445-7.065,10.894
			c-0.569,4.424-3.188,8.516-7.423,10.776c-4.331,2.312-9.323,2.158-13.368,0.032l-0.041,0.048
			c-3.842-2.079-8.612-2.263-12.756-0.052c-6.55,3.497-9.029,11.644-5.532,18.195C404.529,619.601,412.677,622.075,419.228,618.579"
			/>
		<path display="inline" fill="#BAC9D3" d="M566.813,583.911c-2.317-4.342-7.721-5.982-12.063-3.664
			c-2.735,1.46-4.394,4.139-4.676,7.009c-0.724,5.906-4.209,11.381-9.854,14.395c-9.211,4.917-20.672,1.433-25.589-7.777
			c-4.915-9.211-1.43-20.669,7.78-25.585c5.643-3.01,12.128-2.861,17.43-0.178c0.098,0.047,0.2,0.09,0.292,0.14
			c0.037,0.019,0.072,0.037,0.106,0.051c2.463,1.177,5.432,1.214,8.025-0.169c4.331-2.313,5.968-7.704,3.656-12.035
			c-0.906-1.701-2.285-2.979-3.886-3.774l0.004-0.015c-10.336-5.281-22.99-5.596-34.005,0.283
			c-17.884,9.546-24.64,31.778-15.096,49.658c9.543,17.88,31.776,24.642,49.659,15.097c10.756-5.741,17.467-16.078,19.042-27.295
			C568.091,588.042,567.858,585.869,566.813,583.911"/>
		<path display="inline" fill="#BAC9D3" d="M565.724,551.362c-4.184,2.233-6.695,6.369-7.063,10.764
			c-0.484,4.546-3.124,8.772-7.456,11.083c-3.994,2.132-8.55,2.166-12.401,0.488c-3.98-2.619-9.232-3.039-13.734-0.637
			c-6.551,3.497-9.03,11.643-5.531,18.197c3.496,6.551,11.645,9.026,18.197,5.529c4.218-2.252,6.738-6.444,7.064-10.893
			c0.57-4.425,3.19-8.516,7.424-10.777c4.331-2.312,9.322-2.157,13.367-0.031l0.041-0.048c3.842,2.079,8.613,2.263,12.756,0.052
			c6.55-3.498,9.03-11.644,5.532-18.196C580.423,550.34,572.273,547.866,565.724,551.362"/>
		<path display="inline" fill="#BAC9D3" d="M590.029,586.029c2.318,4.342,7.721,5.982,12.063,3.665
			c2.737-1.46,4.394-4.139,4.676-7.01c0.725-5.906,4.209-11.381,9.855-14.393c9.211-4.917,20.672-1.434,25.588,7.777
			s1.429,20.668-7.78,25.584c-5.642,3.011-12.127,2.861-17.429,0.179c-0.098-0.047-0.201-0.09-0.293-0.14
			c-0.036-0.019-0.072-0.037-0.106-0.052c-2.462-1.176-5.431-1.214-8.024,0.17c-4.331,2.312-5.969,7.703-3.656,12.035
			c0.907,1.7,2.286,2.979,3.885,3.773l-0.006,0.016c10.336,5.28,22.992,5.596,34.006-0.284
			c17.885-9.546,24.642-31.777,15.097-49.658c-9.544-17.879-31.775-24.641-49.659-15.096c-10.755,5.74-17.465,16.078-19.043,27.294
			C588.752,581.899,588.984,584.071,590.029,586.029"/>
		<path display="inline" fill="#BAC9D3" d="M591.119,618.579c4.185-2.233,6.695-6.369,7.063-10.764
			c0.485-4.546,3.125-8.771,7.457-11.084c3.994-2.131,8.549-2.165,12.401-0.488c3.979,2.62,9.231,3.04,13.731,0.638
			c6.552-3.497,9.032-11.644,5.534-18.197c-3.498-6.552-11.645-9.026-18.198-5.53c-4.218,2.252-6.737,6.445-7.063,10.894
			c-0.57,4.424-3.189,8.516-7.424,10.776c-4.331,2.312-9.323,2.158-13.368,0.032l-0.04,0.048c-3.843-2.079-8.614-2.263-12.757-0.052
			c-6.55,3.497-9.029,11.644-5.532,18.195C576.421,619.601,584.569,622.075,591.119,618.579"/>
		<path display="inline" fill="#BAC9D3" d="M738.435,583.911c-2.318-4.342-7.721-5.982-12.062-3.664
			c-2.736,1.46-4.395,4.139-4.677,7.009c-0.724,5.906-4.209,11.381-9.855,14.395c-9.211,4.917-20.67,1.433-25.586-7.777
			c-4.916-9.211-1.431-20.669,7.78-25.585c5.64-3.01,12.127-2.861,17.429-0.178c0.097,0.047,0.2,0.09,0.291,0.14
			c0.036,0.019,0.074,0.037,0.107,0.051c2.461,1.177,5.431,1.214,8.024-0.169c4.332-2.313,5.97-7.704,3.655-12.035
			c-0.905-1.701-2.285-2.979-3.885-3.774l0.006-0.015c-10.336-5.281-22.991-5.596-34.006,0.283
			c-17.884,9.546-24.64,31.778-15.096,49.658c9.542,17.88,31.774,24.642,49.659,15.097c10.754-5.741,17.466-16.078,19.041-27.295
			C739.712,588.042,739.479,585.869,738.435,583.911"/>
		<path display="inline" fill="#BAC9D3" d="M737.345,551.362c-4.184,2.233-6.695,6.369-7.063,10.764
			c-0.484,4.546-3.125,8.772-7.455,11.083c-3.995,2.132-8.551,2.166-12.403,0.488c-3.979-2.619-9.23-3.039-13.731-0.637
			c-6.552,3.497-9.031,11.643-5.532,18.197c3.496,6.551,11.644,9.026,18.196,5.529c4.219-2.252,6.737-6.444,7.064-10.893
			c0.569-4.425,3.189-8.516,7.423-10.777c4.332-2.312,9.323-2.157,13.369-0.031l0.039-0.048c3.843,2.079,8.614,2.263,12.757,0.052
			c6.552-3.498,9.029-11.644,5.533-18.196C752.042,550.34,743.897,547.866,737.345,551.362"/>
		<path display="inline" fill="#BAC9D3" d="M761.651,586.029c2.318,4.342,7.722,5.982,12.063,3.665
			c2.735-1.46,4.393-4.139,4.675-7.01c0.725-5.906,4.209-11.381,9.856-14.393c9.21-4.917,20.671-1.434,25.586,7.777
			c4.916,9.211,1.43,20.668-7.78,25.584c-5.64,3.011-12.127,2.861-17.429,0.179c-0.097-0.047-0.2-0.09-0.292-0.14
			c-0.036-0.019-0.072-0.037-0.106-0.052c-2.463-1.176-5.431-1.214-8.024,0.17c-4.332,2.312-5.97,7.703-3.657,12.035
			c0.907,1.7,2.287,2.979,3.887,3.773l-0.005,0.016c10.335,5.28,22.99,5.596,34.004-0.284c17.885-9.546,24.642-31.777,15.097-49.658
			c-9.544-17.879-31.774-24.641-49.659-15.096c-10.754,5.74-17.466,16.078-19.042,27.294
			C760.374,581.899,760.604,584.071,761.651,586.029"/>
		<path display="inline" fill="#BAC9D3" d="M762.741,618.579c4.184-2.233,6.694-6.369,7.062-10.764
			c0.485-4.546,3.125-8.771,7.456-11.084c3.996-2.131,8.551-2.165,12.402-0.488c3.979,2.62,9.231,3.04,13.732,0.638
			c6.551-3.497,9.031-11.644,5.532-18.197c-3.496-6.552-11.645-9.026-18.197-5.53c-4.217,2.252-6.738,6.445-7.063,10.894
			c-0.57,4.424-3.189,8.516-7.423,10.776c-4.333,2.312-9.324,2.158-13.369,0.032l-0.04,0.048c-3.843-2.079-8.613-2.263-12.756-0.052
			c-6.551,3.497-9.03,11.644-5.533,18.195C748.041,619.601,756.189,622.075,762.741,618.579"/>
		<path display="inline" fill="#BAC9D3" d="M910.326,583.911c-2.316-4.342-7.721-5.982-12.063-3.664
			c-2.736,1.46-4.395,4.139-4.676,7.009c-0.726,5.906-4.209,11.381-9.855,14.395c-9.211,4.917-20.67,1.433-25.587-7.777
			c-4.916-9.211-1.43-20.669,7.78-25.585c5.64-3.01,12.127-2.861,17.429-0.178c0.097,0.047,0.2,0.09,0.292,0.14
			c0.036,0.019,0.072,0.037,0.106,0.051c2.463,1.177,5.431,1.214,8.023-0.169c4.332-2.313,5.971-7.704,3.657-12.035
			c-0.907-1.701-2.287-2.979-3.885-3.774l0.004-0.015c-10.336-5.281-22.991-5.596-34.005,0.283
			c-17.885,9.546-24.642,31.778-15.098,49.658c9.542,17.88,31.775,24.642,49.659,15.097c10.755-5.741,17.466-16.078,19.042-27.295
			C911.603,588.042,911.373,585.869,910.326,583.911"/>
		<path display="inline" fill="#BAC9D3" d="M909.237,551.362c-4.186,2.233-6.695,6.369-7.063,10.764
			c-0.485,4.546-3.125,8.772-7.456,11.083c-3.996,2.132-8.549,2.166-12.402,0.488c-3.979-2.619-9.23-3.039-13.73-0.637
			c-6.552,3.497-9.032,11.643-5.533,18.197c3.497,6.551,11.646,9.026,18.197,5.529c4.217-2.252,6.738-6.444,7.063-10.893
			c0.571-4.425,3.191-8.516,7.424-10.777c4.332-2.312,9.323-2.157,13.368-0.031l0.04-0.048c3.844,2.079,8.614,2.263,12.757,0.052
			c6.551-3.498,9.029-11.644,5.532-18.196C923.935,550.34,915.788,547.866,909.237,551.362"/>
		<path display="inline" fill="#BAC9D3" d="M933.542,586.029c2.317,4.342,7.721,5.982,12.063,3.665
			c2.735-1.46,4.396-4.139,4.676-7.01c0.726-5.906,4.209-11.381,9.855-14.393c9.211-4.917,20.671-1.434,25.586,7.777
			c4.917,9.211,1.431,20.668-7.779,25.584c-5.641,3.011-12.127,2.861-17.43,0.179c-0.097-0.047-0.199-0.09-0.291-0.14
			c-0.036-0.019-0.073-0.037-0.107-0.052c-2.461-1.176-5.431-1.214-8.023,0.17c-4.331,2.312-5.971,7.703-3.657,12.035
			c0.907,1.7,2.288,2.979,3.887,3.773l-0.005,0.016c10.335,5.28,22.99,5.596,34.005-0.284c17.885-9.546,24.641-31.777,15.098-49.658
			c-9.543-17.879-31.775-24.641-49.66-15.096c-10.754,5.74-17.465,16.078-19.042,27.294
			C932.264,581.899,932.497,584.071,933.542,586.029"/>
		<path display="inline" fill="#BAC9D3" d="M934.631,618.579c4.186-2.233,6.695-6.369,7.063-10.764
			c0.484-4.546,3.125-8.771,7.457-11.084c3.994-2.131,8.549-2.165,12.401-0.488c3.979,2.62,9.23,3.04,13.73,0.638
			c6.552-3.497,9.031-11.644,5.533-18.197c-3.497-6.552-11.646-9.026-18.197-5.53c-4.218,2.252-6.738,6.445-7.063,10.894
			c-0.57,4.424-3.189,8.516-7.423,10.776c-4.332,2.312-9.323,2.158-13.368,0.032l-0.041,0.048
			c-3.843-2.079-8.613-2.263-12.756-0.052c-6.551,3.497-9.029,11.644-5.532,18.195C919.934,619.601,928.082,622.075,934.631,618.579
			"/>
		<path display="inline" fill="#BAC9D3" d="M359.018,512.618c2.317,4.342,7.721,5.981,12.062,3.665
			c2.736-1.46,4.395-4.14,4.676-7.01c0.724-5.906,4.209-11.38,9.855-14.395c9.211-4.916,20.671-1.433,25.587,7.778
			c4.916,9.21,1.431,20.668-7.78,25.584c-5.641,3.01-12.127,2.861-17.429,0.178c-0.097-0.046-0.2-0.09-0.291-0.139
			c-0.037-0.02-0.073-0.037-0.107-0.052c-2.462-1.176-5.431-1.214-8.025,0.17c-4.331,2.311-5.968,7.703-3.656,12.034
			c0.907,1.701,2.286,2.979,3.887,3.774l-0.005,0.016c10.335,5.279,22.99,5.596,34.005-0.284
			c17.884-9.546,24.64-31.777,15.096-49.659c-9.543-17.878-31.775-24.64-49.659-15.095c-10.755,5.741-17.466,16.077-19.042,27.294
			C357.74,508.488,357.973,510.66,359.018,512.618"/>
		<path display="inline" fill="#BAC9D3" d="M360.108,545.168c4.184-2.232,6.694-6.369,7.062-10.764
			c0.485-4.547,3.125-8.772,7.457-11.084c3.994-2.131,8.549-2.164,12.401-0.487c3.98,2.618,9.232,3.039,13.732,0.637
			c6.552-3.497,9.031-11.643,5.532-18.198c-3.497-6.551-11.645-9.025-18.196-5.529c-4.219,2.252-6.738,6.445-7.064,10.893
			c-0.57,4.425-3.189,8.517-7.424,10.777c-4.331,2.312-9.323,2.157-13.368,0.032l-0.04,0.047c-3.843-2.078-8.613-2.262-12.756-0.051
			c-6.551,3.497-9.03,11.644-5.533,18.195C345.409,546.19,353.557,548.665,360.108,545.168"/>
		<path display="inline" fill="#BAC9D3" d="M507.692,510.5c-2.318-4.341-7.721-5.982-12.063-3.664
			c-2.735,1.46-4.394,4.139-4.676,7.01c-0.724,5.906-4.209,11.38-9.855,14.393c-9.21,4.917-20.67,1.433-25.586-7.778
			c-4.916-9.21-1.43-20.667,7.78-25.584c5.64-3.01,12.126-2.861,17.429-0.178c0.097,0.047,0.2,0.091,0.292,0.14
			c0.036,0.02,0.072,0.036,0.106,0.051c2.462,1.177,5.432,1.215,8.025-0.169c4.331-2.312,5.968-7.703,3.655-12.035
			c-0.907-1.701-2.286-2.978-3.886-3.773l0.005-0.016c-10.336-5.279-22.989-5.596-34.005,0.284
			c-17.884,9.545-24.64,31.777-15.096,49.657c9.543,17.88,31.775,24.642,49.659,15.097c10.755-5.741,17.466-16.078,19.042-27.294
			C508.97,514.63,508.737,512.458,507.692,510.5"/>
		<path display="inline" fill="#BAC9D3" d="M506.602,477.95c-4.183,2.233-6.694,6.369-7.062,10.765
			c-0.484,4.546-3.125,8.77-7.456,11.082c-3.994,2.133-8.55,2.165-12.401,0.489c-3.981-2.62-9.233-3.04-13.733-0.637
			c-6.551,3.496-9.03,11.643-5.532,18.197c3.497,6.551,11.645,9.026,18.196,5.529c4.219-2.252,6.739-6.445,7.065-10.894
			c0.569-4.424,3.189-8.516,7.423-10.776c4.332-2.312,9.323-2.157,13.368-0.032l0.041-0.048c3.842,2.079,8.612,2.263,12.756,0.052
			c6.551-3.498,9.029-11.644,5.533-18.195C521.302,476.928,513.153,474.454,506.602,477.95"/>
		<path display="inline" fill="#BAC9D3" d="M530.91,512.618c2.317,4.342,7.721,5.981,12.063,3.665c2.736-1.46,4.394-4.14,4.676-7.01
			c0.723-5.906,4.209-11.38,9.855-14.395c9.21-4.916,20.67-1.433,25.586,7.778c4.917,9.21,1.431,20.668-7.78,25.584
			c-5.641,3.01-12.126,2.861-17.43,0.178c-0.096-0.046-0.199-0.09-0.29-0.139c-0.037-0.02-0.074-0.037-0.107-0.052
			c-2.461-1.176-5.432-1.214-8.025,0.17c-4.332,2.311-5.967,7.703-3.655,12.034c0.906,1.701,2.285,2.979,3.886,3.774l-0.006,0.016
			c10.338,5.279,22.99,5.596,34.006-0.284c17.883-9.546,24.64-31.777,15.095-49.659c-9.542-17.878-31.774-24.64-49.658-15.095
			c-10.755,5.741-17.465,16.077-19.043,27.294C529.633,508.488,529.865,510.66,530.91,512.618"/>
		<path display="inline" fill="#BAC9D3" d="M532,545.168c4.183-2.232,6.693-6.369,7.063-10.764
			c0.483-4.547,3.124-8.772,7.456-11.084c3.994-2.131,8.55-2.164,12.401-0.487c3.98,2.618,9.232,3.039,13.732,0.637
			c6.552-3.497,9.03-11.643,5.531-18.198c-3.496-6.551-11.643-9.025-18.195-5.529c-4.219,2.252-6.739,6.445-7.065,10.893
			c-0.569,4.425-3.189,8.517-7.423,10.777c-4.331,2.312-9.322,2.157-13.367,0.032l-0.042,0.047
			c-3.841-2.078-8.613-2.262-12.756-0.051c-6.551,3.497-9.03,11.644-5.533,18.195C517.3,546.19,525.448,548.665,532,545.168"/>
		<path display="inline" fill="#BAC9D3" d="M679.314,510.5c-2.317-4.341-7.721-5.982-12.063-3.664
			c-2.736,1.46-4.394,4.139-4.675,7.01c-0.725,5.906-4.209,11.38-9.856,14.393c-9.211,4.917-20.67,1.433-25.586-7.778
			c-4.916-9.21-1.431-20.667,7.78-25.584c5.639-3.01,12.126-2.861,17.429-0.178c0.098,0.047,0.2,0.091,0.291,0.14
			c0.037,0.02,0.073,0.036,0.108,0.051c2.461,1.177,5.431,1.215,8.024-0.169c4.33-2.312,5.968-7.703,3.655-12.035
			c-0.906-1.701-2.286-2.978-3.885-3.773l0.005-0.016c-10.337-5.279-22.99-5.596-34.006,0.284
			c-17.885,9.545-24.639,31.777-15.096,49.657c9.543,17.88,31.775,24.642,49.659,15.097c10.755-5.741,17.465-16.078,19.043-27.294
			C680.591,514.63,680.36,512.458,679.314,510.5"/>
		<path display="inline" fill="#BAC9D3" d="M678.225,477.95c-4.185,2.233-6.694,6.369-7.063,10.765
			c-0.484,4.546-3.124,8.77-7.456,11.082c-3.994,2.133-8.549,2.165-12.401,0.489c-3.98-2.62-9.232-3.04-13.732-0.637
			c-6.551,3.496-9.03,11.643-5.532,18.197c3.496,6.551,11.645,9.026,18.196,5.529c4.219-2.252,6.739-6.445,7.065-10.894
			c0.569-4.424,3.189-8.516,7.422-10.776c4.332-2.312,9.323-2.157,13.368-0.032l0.042-0.048c3.842,2.079,8.612,2.263,12.755,0.052
			c6.551-3.498,9.03-11.644,5.532-18.195C692.924,476.928,684.776,474.454,678.225,477.95"/>
		<path display="inline" fill="#BAC9D3" d="M702.531,512.618c2.317,4.342,7.721,5.981,12.063,3.665
			c2.736-1.46,4.394-4.14,4.675-7.01c0.725-5.906,4.209-11.38,9.855-14.395c9.211-4.916,20.671-1.433,25.588,7.778
			c4.915,9.21,1.429,20.668-7.78,25.584c-5.64,3.01-12.127,2.861-17.429,0.178c-0.097-0.046-0.201-0.09-0.293-0.139
			c-0.036-0.02-0.072-0.037-0.106-0.052c-2.462-1.176-5.432-1.214-8.024,0.17c-4.331,2.311-5.969,7.703-3.656,12.034
			c0.907,1.701,2.286,2.979,3.885,3.774l-0.004,0.016c10.336,5.279,22.989,5.596,34.004-0.284
			c17.885-9.546,24.64-31.777,15.097-49.659c-9.543-17.878-31.775-24.64-49.658-15.095c-10.756,5.741-17.467,16.077-19.042,27.294
			C701.253,508.488,701.485,510.66,702.531,512.618"/>
		<path display="inline" fill="#BAC9D3" d="M703.62,545.168c4.185-2.232,6.695-6.369,7.063-10.764
			c0.485-4.547,3.125-8.772,7.457-11.084c3.994-2.131,8.549-2.164,12.401-0.487c3.981,2.618,9.232,3.039,13.731,0.637
			c6.552-3.497,9.031-11.643,5.533-18.198c-3.497-6.551-11.645-9.025-18.196-5.529c-4.218,2.252-6.738,6.445-7.064,10.893
			c-0.57,4.425-3.19,8.517-7.424,10.777c-4.331,2.312-9.322,2.157-13.367,0.032l-0.041,0.047c-3.843-2.078-8.614-2.262-12.756-0.051
			c-6.551,3.497-9.03,11.644-5.532,18.195C688.922,546.19,697.07,548.665,703.62,545.168"/>
		<path display="inline" fill="#BAC9D3" d="M851.205,510.5c-2.316-4.341-7.721-5.982-12.062-3.664
			c-2.736,1.46-4.395,4.139-4.675,7.01c-0.726,5.906-4.211,11.38-9.857,14.393c-9.209,4.917-20.67,1.433-25.586-7.778
			c-4.917-9.21-1.429-20.667,7.781-25.584c5.639-3.01,12.126-2.861,17.429-0.178c0.096,0.047,0.199,0.091,0.29,0.14
			c0.038,0.02,0.074,0.036,0.108,0.051c2.461,1.177,5.431,1.215,8.023-0.169c4.332-2.312,5.97-7.703,3.656-12.035
			c-0.907-1.701-2.286-2.978-3.886-3.773l0.005-0.016c-10.336-5.279-22.99-5.596-34.004,0.284
			c-17.885,9.545-24.642,31.777-15.097,49.657c9.543,17.88,31.775,24.642,49.658,15.097c10.755-5.741,17.465-16.078,19.042-27.294
			C852.484,514.63,852.252,512.458,851.205,510.5"/>
		<path display="inline" fill="#BAC9D3" d="M850.116,477.95c-4.184,2.233-6.693,6.369-7.063,10.765
			c-0.484,4.546-3.125,8.77-7.456,11.082c-3.995,2.133-8.55,2.165-12.401,0.489c-3.98-2.62-9.232-3.04-13.732-0.637
			c-6.55,3.496-9.03,11.643-5.531,18.197c3.496,6.551,11.646,9.026,18.196,5.529c4.218-2.252,6.738-6.445,7.063-10.894
			c0.569-4.424,3.189-8.516,7.422-10.776c4.333-2.312,9.324-2.157,13.369-0.032l0.041-0.048c3.844,2.079,8.612,2.263,12.755,0.052
			c6.553-3.498,9.031-11.644,5.533-18.195C864.814,476.928,856.667,474.454,850.116,477.95"/>
		<path display="inline" fill="#BAC9D3" d="M874.422,512.618c2.317,4.342,7.722,5.981,12.063,3.665
			c2.736-1.46,4.394-4.14,4.676-7.01c0.725-5.906,4.208-11.38,9.856-14.395c9.209-4.916,20.67-1.433,25.586,7.778
			c4.915,9.21,1.43,20.668-7.781,25.584c-5.639,3.01-12.126,2.861-17.429,0.178c-0.097-0.046-0.199-0.09-0.29-0.139
			c-0.037-0.02-0.074-0.037-0.108-0.052c-2.462-1.176-5.431-1.214-8.023,0.17c-4.332,2.311-5.97,7.703-3.655,12.034
			c0.906,1.701,2.285,2.979,3.885,3.774l-0.005,0.016c10.336,5.279,22.99,5.596,34.006-0.284
			c17.883-9.546,24.641-31.777,15.095-49.659c-9.542-17.878-31.772-24.64-49.657-15.095c-10.756,5.741-17.468,16.077-19.042,27.294
			C873.144,508.488,873.376,510.66,874.422,512.618"/>
		<path display="inline" fill="#BAC9D3" d="M875.513,545.168c4.183-2.232,6.693-6.369,7.063-10.764
			c0.483-4.547,3.124-8.772,7.455-11.084c3.995-2.131,8.549-2.164,12.403-0.487c3.979,2.618,9.229,3.039,13.73,0.637
			c6.552-3.497,9.03-11.643,5.531-18.198c-3.496-6.551-11.646-9.025-18.195-5.529c-4.219,2.252-6.738,6.445-7.064,10.893
			c-0.569,4.425-3.189,8.517-7.424,10.777c-4.331,2.312-9.321,2.157-13.367,0.032l-0.041,0.047
			c-3.844-2.078-8.612-2.262-12.755-0.051c-6.553,3.497-9.03,11.644-5.534,18.195C860.814,546.19,868.96,548.665,875.513,545.168"/>
		<path display="inline" fill="#BAC9D3" d="M393.832,400.433c-4.184,2.232-6.694,6.369-7.063,10.764
			c-0.484,4.546-3.125,8.772-7.456,11.084c-3.995,2.131-8.55,2.164-12.401,0.488c-3.981-2.619-9.232-3.04-13.732-0.638
			c-6.552,3.497-9.031,11.644-5.533,18.198c3.497,6.551,11.645,9.025,18.197,5.529c4.218-2.252,6.738-6.445,7.064-10.893
			c0.57-4.425,3.189-8.517,7.424-10.777c4.331-2.312,9.322-2.157,13.368-0.032l0.04-0.047c3.842,2.078,8.613,2.262,12.756,0.051
			c6.551-3.497,9.03-11.644,5.533-18.195C408.531,399.411,400.381,396.936,393.832,400.433"/>
		<path display="inline" fill="#BAC9D3" d="M418.138,435.101c2.317,4.342,7.721,5.981,12.062,3.665
			c2.736-1.46,4.394-4.14,4.676-7.01c0.724-5.907,4.209-11.381,9.855-14.395c9.211-4.915,20.671-1.432,25.587,7.779
			c4.916,9.21,1.43,20.667-7.78,25.584c-5.64,3.01-12.127,2.861-17.429,0.178c-0.097-0.047-0.2-0.091-0.292-0.14
			c-0.036-0.02-0.072-0.036-0.106-0.051c-2.462-1.177-5.432-1.215-8.025,0.169c-4.331,2.312-5.968,7.703-3.656,12.035
			c0.907,1.7,2.286,2.978,3.886,3.773l-0.005,0.016c10.336,5.28,22.99,5.596,34.006-0.284c17.884-9.545,24.64-31.777,15.096-49.658
			c-9.543-17.879-31.775-24.641-49.659-15.096c-10.755,5.741-17.466,16.078-19.043,27.294
			C416.86,430.97,417.092,433.142,418.138,435.101"/>
		<path display="inline" fill="#BAC9D3" d="M419.228,467.651c4.184-2.234,6.694-6.369,7.062-10.765
			c0.484-4.546,3.125-8.772,7.456-11.083c3.995-2.132,8.55-2.165,12.402-0.488c3.98,2.619,9.232,3.04,13.732,0.637
			c6.551-3.497,9.03-11.643,5.532-18.197c-3.497-6.551-11.645-9.026-18.196-5.529c-4.219,2.252-6.738,6.444-7.065,10.893
			c-0.569,4.424-3.188,8.517-7.423,10.776c-4.331,2.313-9.323,2.157-13.368,0.033l-0.041,0.047
			c-3.842-2.078-8.612-2.262-12.756-0.052c-6.55,3.498-9.029,11.645-5.532,18.196C404.529,468.673,412.677,471.147,419.228,467.651"
			/>
		<path display="inline" fill="#BAC9D3" d="M566.813,432.982c-2.317-4.342-7.721-5.982-12.063-3.665
			c-2.735,1.46-4.394,4.14-4.676,7.01c-0.724,5.907-4.209,11.381-9.854,14.395c-9.211,4.916-20.672,1.433-25.589-7.778
			c-4.915-9.211-1.43-20.668,7.78-25.584c5.643-3.011,12.128-2.861,17.43-0.178c0.098,0.046,0.2,0.09,0.292,0.139
			c0.037,0.02,0.072,0.037,0.106,0.052c2.463,1.176,5.432,1.214,8.025-0.17c4.331-2.312,5.968-7.703,3.656-12.034
			c-0.906-1.702-2.285-2.979-3.886-3.774l0.004-0.016c-10.336-5.279-22.99-5.596-34.005,0.284
			c-17.884,9.546-24.64,31.777-15.096,49.659c9.543,17.878,31.776,24.64,49.659,15.095c10.756-5.741,17.467-16.077,19.042-27.294
			C568.091,437.112,567.858,434.94,566.813,432.982"/>
		<path display="inline" fill="#BAC9D3" d="M565.724,400.433c-4.184,2.232-6.695,6.369-7.063,10.764
			c-0.484,4.546-3.124,8.772-7.456,11.084c-3.994,2.131-8.55,2.164-12.401,0.488c-3.98-2.619-9.232-3.04-13.734-0.638
			c-6.551,3.497-9.03,11.644-5.531,18.198c3.496,6.551,11.645,9.025,18.197,5.529c4.218-2.252,6.738-6.445,7.064-10.893
			c0.57-4.425,3.19-8.517,7.424-10.777c4.331-2.312,9.322-2.157,13.367-0.032l0.041-0.047c3.842,2.078,8.613,2.262,12.756,0.051
			c6.55-3.497,9.03-11.644,5.532-18.195C580.423,399.411,572.273,396.936,565.724,400.433"/>
		<path display="inline" fill="#BAC9D3" d="M590.029,435.101c2.318,4.342,7.721,5.981,12.063,3.665
			c2.737-1.46,4.394-4.14,4.676-7.01c0.725-5.907,4.209-11.381,9.855-14.395c9.211-4.915,20.672-1.432,25.588,7.779
			c4.916,9.21,1.429,20.667-7.78,25.584c-5.642,3.01-12.127,2.861-17.429,0.178c-0.098-0.047-0.201-0.091-0.293-0.14
			c-0.036-0.02-0.072-0.036-0.106-0.051c-2.462-1.177-5.431-1.215-8.024,0.169c-4.331,2.312-5.969,7.703-3.656,12.035
			c0.907,1.7,2.286,2.978,3.885,3.773l-0.006,0.016c10.336,5.28,22.992,5.596,34.006-0.284
			c17.885-9.545,24.642-31.777,15.097-49.658c-9.544-17.879-31.775-24.641-49.659-15.096c-10.755,5.741-17.465,16.078-19.043,27.294
			C588.752,430.97,588.984,433.142,590.029,435.101"/>
		<path display="inline" fill="#BAC9D3" d="M591.119,467.651c4.185-2.234,6.695-6.369,7.063-10.765
			c0.485-4.546,3.125-8.772,7.457-11.083c3.994-2.132,8.549-2.165,12.401-0.488c3.979,2.619,9.231,3.04,13.731,0.637
			c6.552-3.497,9.032-11.643,5.534-18.197c-3.498-6.551-11.645-9.026-18.198-5.529c-4.218,2.252-6.737,6.444-7.063,10.893
			c-0.57,4.424-3.189,8.517-7.424,10.776c-4.331,2.313-9.323,2.157-13.368,0.033l-0.04,0.047c-3.843-2.078-8.614-2.262-12.757-0.052
			c-6.55,3.498-9.029,11.645-5.532,18.196C576.421,468.673,584.569,471.147,591.119,467.651"/>
		<path display="inline" fill="#BAC9D3" d="M738.435,432.982c-2.318-4.342-7.721-5.982-12.062-3.665
			c-2.736,1.46-4.395,4.14-4.677,7.01c-0.724,5.907-4.209,11.381-9.855,14.395c-9.211,4.916-20.67,1.433-25.586-7.778
			s-1.431-20.668,7.78-25.584c5.64-3.011,12.127-2.861,17.429-0.178c0.097,0.046,0.2,0.09,0.291,0.139
			c0.036,0.02,0.074,0.037,0.107,0.052c2.461,1.176,5.431,1.214,8.024-0.17c4.332-2.312,5.97-7.703,3.655-12.034
			c-0.905-1.702-2.285-2.979-3.885-3.774l0.006-0.016c-10.336-5.279-22.991-5.596-34.006,0.284
			c-17.884,9.546-24.64,31.777-15.096,49.659c9.542,17.878,31.774,24.64,49.659,15.095c10.754-5.741,17.466-16.077,19.041-27.294
			C739.712,437.112,739.479,434.94,738.435,432.982"/>
		<path display="inline" fill="#BAC9D3" d="M737.345,400.433c-4.184,2.232-6.695,6.369-7.063,10.764
			c-0.484,4.546-3.125,8.772-7.455,11.084c-3.995,2.131-8.551,2.164-12.403,0.488c-3.979-2.619-9.23-3.04-13.731-0.638
			c-6.552,3.497-9.031,11.644-5.532,18.198c3.496,6.551,11.644,9.025,18.196,5.529c4.219-2.252,6.737-6.445,7.064-10.893
			c0.569-4.425,3.189-8.517,7.423-10.777c4.332-2.312,9.323-2.157,13.369-0.032l0.039-0.047c3.843,2.078,8.614,2.262,12.757,0.051
			c6.552-3.497,9.029-11.644,5.533-18.195C752.042,399.411,743.897,396.936,737.345,400.433"/>
		<path display="inline" fill="#BAC9D3" d="M761.651,435.101c2.318,4.342,7.722,5.981,12.063,3.665
			c2.735-1.46,4.393-4.14,4.675-7.01c0.725-5.907,4.209-11.381,9.856-14.395c9.21-4.915,20.671-1.432,25.586,7.779
			c4.916,9.21,1.43,20.667-7.78,25.584c-5.64,3.01-12.127,2.861-17.429,0.178c-0.097-0.047-0.2-0.091-0.292-0.14
			c-0.036-0.02-0.072-0.036-0.106-0.051c-2.463-1.177-5.431-1.215-8.024,0.169c-4.332,2.312-5.97,7.703-3.657,12.035
			c0.907,1.7,2.287,2.978,3.887,3.773l-0.005,0.016c10.335,5.28,22.99,5.596,34.004-0.284c17.885-9.545,24.642-31.777,15.097-49.658
			c-9.544-17.879-31.774-24.641-49.659-15.096c-10.754,5.741-17.466,16.078-19.042,27.294
			C760.374,430.97,760.604,433.142,761.651,435.101"/>
		<path display="inline" fill="#BAC9D3" d="M762.741,467.651c4.184-2.234,6.694-6.369,7.062-10.765
			c0.485-4.546,3.125-8.772,7.456-11.083c3.996-2.132,8.551-2.165,12.402-0.488c3.979,2.619,9.231,3.04,13.732,0.637
			c6.551-3.497,9.031-11.643,5.532-18.197c-3.496-6.551-11.645-9.026-18.197-5.529c-4.217,2.252-6.738,6.444-7.063,10.893
			c-0.57,4.424-3.189,8.517-7.423,10.776c-4.333,2.313-9.324,2.157-13.369,0.033l-0.04,0.047c-3.843-2.078-8.613-2.262-12.756-0.052
			c-6.551,3.498-9.03,11.645-5.533,18.196C748.041,468.673,756.189,471.147,762.741,467.651"/>
		<path display="inline" fill="#BAC9D3" d="M910.326,432.982c-2.316-4.342-7.721-5.982-12.063-3.665
			c-2.736,1.46-4.395,4.14-4.676,7.01c-0.726,5.907-4.209,11.381-9.855,14.395c-9.211,4.916-20.67,1.433-25.587-7.778
			c-4.916-9.211-1.43-20.668,7.78-25.584c5.64-3.011,12.127-2.861,17.429-0.178c0.097,0.046,0.2,0.09,0.292,0.139
			c0.036,0.02,0.072,0.037,0.106,0.052c2.463,1.176,5.431,1.214,8.023-0.17c4.332-2.312,5.971-7.703,3.657-12.034
			c-0.907-1.702-2.287-2.979-3.885-3.774l0.004-0.016c-10.336-5.279-22.991-5.596-34.005,0.284
			c-17.885,9.546-24.642,31.777-15.098,49.659c9.542,17.878,31.775,24.64,49.659,15.095c10.755-5.741,17.466-16.077,19.042-27.294
			C911.603,437.112,911.373,434.94,910.326,432.982"/>
		<path display="inline" fill="#BAC9D3" d="M909.237,400.433c-4.186,2.232-6.695,6.369-7.063,10.764
			c-0.485,4.546-3.125,8.772-7.456,11.084c-3.996,2.131-8.549,2.164-12.402,0.488c-3.979-2.619-9.23-3.04-13.73-0.638
			c-6.552,3.497-9.032,11.644-5.533,18.198c3.497,6.551,11.646,9.025,18.197,5.529c4.217-2.252,6.738-6.445,7.063-10.893
			c0.571-4.425,3.191-8.517,7.424-10.777c4.332-2.312,9.323-2.157,13.368-0.032l0.04-0.047c3.844,2.078,8.614,2.262,12.757,0.051
			c6.551-3.497,9.029-11.644,5.532-18.195C923.935,399.411,915.788,396.936,909.237,400.433"/>
		<path display="inline" fill="#BAC9D3" d="M933.542,435.101c2.317,4.342,7.721,5.981,12.063,3.665
			c2.735-1.46,4.396-4.14,4.676-7.01c0.726-5.907,4.209-11.381,9.855-14.395c9.211-4.915,20.671-1.432,25.586,7.779
			c4.917,9.21,1.431,20.667-7.779,25.584c-5.641,3.01-12.127,2.861-17.43,0.178c-0.097-0.047-0.199-0.091-0.291-0.14
			c-0.036-0.02-0.073-0.036-0.107-0.051c-2.461-1.177-5.431-1.215-8.023,0.169c-4.331,2.312-5.971,7.703-3.657,12.035
			c0.907,1.7,2.288,2.978,3.887,3.773l-0.005,0.016c10.335,5.28,22.99,5.596,34.005-0.284c17.885-9.545,24.641-31.777,15.098-49.658
			c-9.543-17.879-31.775-24.641-49.66-15.096c-10.754,5.741-17.465,16.078-19.042,27.294
			C932.264,430.97,932.497,433.142,933.542,435.101"/>
		<path display="inline" fill="#BAC9D3" d="M934.631,467.651c4.186-2.234,6.695-6.369,7.063-10.765
			c0.484-4.546,3.125-8.772,7.457-11.083c3.994-2.132,8.549-2.165,12.401-0.488c3.979,2.619,9.23,3.04,13.73,0.637
			c6.552-3.497,9.031-11.643,5.533-18.197c-3.497-6.551-11.646-9.026-18.197-5.529c-4.218,2.252-6.738,6.444-7.063,10.893
			c-0.57,4.424-3.189,8.517-7.423,10.776c-4.332,2.313-9.323,2.157-13.368,0.033l-0.041,0.047
			c-3.843-2.078-8.613-2.262-12.756-0.052c-6.551,3.498-9.029,11.645-5.532,18.196C919.934,468.673,928.082,471.147,934.631,467.651
			"/>
	</g>
	<g display="none">
		<rect x="397.808" y="397.808" display="inline" fill="none" width="799.998" height="799.999"/>
		<defs>
			<filter id="Adobe_OpacityMaskFilter" filterUnits="userSpaceOnUse" x="0" y="0" width="1595.615" height="1595.614">
				<feColorMatrix  type="matrix" values="1 0 0 0 0  0 1 0 0 0  0 0 1 0 0  0 0 0 1 0"/>
			</filter>
		</defs>
		<mask maskUnits="userSpaceOnUse" x="0" y="0" width="1595.615" height="1595.614" id="SVGID_1_" display="inline">
			<g filter="url(#Adobe_OpacityMaskFilter)">
				
					<linearGradient id="SVGID_2_" gradientUnits="userSpaceOnUse" x1="397.8071" y1="1197.8066" x2="398.8071" y2="1197.8066" gradientTransform="matrix(755.9966 839.6193 839.6193 -755.9966 -1306022.25 571909.25)">
					<stop  offset="0" style="stop-color:#000000"/>
					<stop  offset="0.0074" style="stop-color:#090909"/>
					<stop  offset="0.0477" style="stop-color:#373737"/>
					<stop  offset="0.0931" style="stop-color:#626262"/>
					<stop  offset="0.1419" style="stop-color:#888888"/>
					<stop  offset="0.195" style="stop-color:#A8A8A8"/>
					<stop  offset="0.2537" style="stop-color:#C4C4C4"/>
					<stop  offset="0.32" style="stop-color:#DADADA"/>
					<stop  offset="0.3974" style="stop-color:#EBEBEB"/>
					<stop  offset="0.4931" style="stop-color:#F6F6F6"/>
					<stop  offset="0.6274" style="stop-color:#FDFDFD"/>
					<stop  offset="1" style="stop-color:#FFFFFF"/>
				</linearGradient>
				<polygon fill="url(#SVGID_2_)" points="839.619,0 1595.614,839.618 755.996,1595.614 0,755.996 				"/>
			</g>
		</mask>
		
			<linearGradient id="SVGID_3_" gradientUnits="userSpaceOnUse" x1="397.8066" y1="1197.8057" x2="398.8066" y2="1197.8057" gradientTransform="matrix(755.9967 839.6194 839.6194 -755.9967 -1306022.375 571909.3125)">
			<stop  offset="0" style="stop-color:#9C9B9B"/>
			<stop  offset="0.0096" style="stop-color:#A09F9F"/>
			<stop  offset="0.0811" style="stop-color:#BABABA"/>
			<stop  offset="0.1623" style="stop-color:#D0D0D0"/>
			<stop  offset="0.2581" style="stop-color:#E1E0E0"/>
			<stop  offset="0.3764" style="stop-color:#ECECEC"/>
			<stop  offset="0.5421" style="stop-color:#F3F3F3"/>
			<stop  offset="1" style="stop-color:#F5F5F5"/>
		</linearGradient>
		<polygon display="inline" mask="url(#SVGID_1_)" fill="url(#SVGID_3_)" points="839.619,0 1595.615,839.618 755.996,1595.614 
			0,755.996 		"/>
	</g>
</g>
<g id="Capa_2">
	<g>
		<g>
			<path fill="#00A4B5" d="M929.504,675.506c-11.531-21.609-38.422-29.772-60.03-18.24c-13.616,7.27-21.869,20.602-23.272,34.889
				c-3.604,29.394-20.946,56.639-49.048,71.635c-45.837,24.472-102.876,7.13-127.342-38.708
				c-24.467-45.837-7.123-102.861,38.718-127.33c28.072-14.981,60.355-14.238,86.747-0.888c0.479,0.234,0.991,0.448,1.448,0.694
				c0.183,0.099,0.36,0.186,0.529,0.26c12.25,5.852,27.033,6.04,39.938-0.847c21.558-11.505,29.706-38.338,18.195-59.896
				c-4.515-8.459-11.378-14.824-19.342-18.779l0.024-0.078c-51.439-26.277-114.416-27.851-169.239,1.412
				c-89.006,47.508-122.634,158.15-75.13,247.144c47.493,88.98,158.138,122.634,247.144,75.125
				c53.526-28.563,86.924-80.01,94.773-135.835C935.868,696.062,934.71,685.25,929.504,675.506"/>
			<path fill="#F9B65D" d="M924.081,513.512c-20.818,11.113-33.313,31.696-35.146,53.571c-2.41,22.625-15.556,43.653-37.104,55.162
				c-19.887,10.605-42.557,10.777-61.722,2.429c-19.815-13.038-45.95-15.125-68.349-3.176
				c-32.603,17.407-44.939,57.951-27.528,90.567c17.401,32.607,57.955,44.919,90.558,27.521c21-11.208,33.537-32.075,35.16-54.218
				c2.837-22.019,15.87-42.383,36.943-53.631c21.558-11.51,46.402-10.738,66.533-0.159l0.2-0.237
				c19.124,10.348,42.866,11.26,63.481,0.252c32.607-17.399,44.945-57.946,27.54-90.55
				C997.237,508.426,956.682,496.109,924.081,513.512"/>
		</g>
		<g>
			<path d="M529.595,961.885v-0.445c0-3.908-3.238-7.146-7.145-7.146h-31.704c-3.907,0-7.145,3.237-7.145,7.146v0.445
				c0,3.907,3.237,7.145,7.145,7.145h28.131c7.256,0,13.731,3.126,18.196,8.039c0.335,0.335,0.558,0.67,0.893,1.004
				c3.461,4.241,5.582,9.712,5.582,15.628c0,13.62-11.052,24.671-24.671,24.671H494.43c-13.62,0-24.671-11.051-24.671-24.671h13.954
				c0,5.916,4.801,10.717,10.717,10.717h24.447c5.917,0,10.829-4.801,10.829-10.717s-4.912-10.717-10.829-10.717h-28.131
				c-5.693,0-10.829-2.232-14.624-5.915c-1.005-1.005-1.897-2.123-2.679-3.35c-2.344-3.349-3.684-7.479-3.684-11.944v-0.448
				c0-11.609,9.377-21.098,20.987-21.098h31.704c11.609,0,21.099,9.488,21.099,21.098v0.448L529.595,961.885z"/>
			<path d="M632.855,940.229v78.143h-13.954v-35.834h-50.235v35.834h-13.954v-78.143h13.954v28.354h50.235v-28.354H632.855z"/>
			<path d="M719.371,979.299c0,21.545-17.527,39.072-39.072,39.072c-21.544,0-39.072-17.527-39.072-39.072
				c0-21.543,17.527-39.07,39.072-39.07C701.844,940.229,719.371,957.756,719.371,979.299z M705.417,979.299
				c0-13.842-11.275-25.116-25.118-25.116s-25.118,11.274-25.118,25.116c0,13.844,11.275,25.118,25.118,25.118
				S705.417,993.143,705.417,979.299z"/>
			<path d="M792.044,946.592c3.796,3.795,6.14,9.042,6.14,14.848c0,8.483-5.023,15.851-12.28,19.199
				c-1.897,0.894-3.906,1.452-6.027,1.675c-0.223,0-0.447,0-0.67,0v0.112H741.81v35.945h-13.954v-78.143h49.229
				c5.805,0,11.052,2.344,14.848,6.139L792.044,946.592z M780.1,967.913c2.568-1.116,4.243-3.684,4.243-6.474
				c0-2.568-1.34-4.354-2.121-5.136c-0.893-0.893-2.567-2.01-5.023-2.01H741.81v14.4h35.388c1.005,0,2.009-0.223,2.902-0.67V967.913
				z"/>
			<path fill="#00A4B5" d="M887.267,940.34v13.954h-32.038v64.188h-13.954v-64.188h-32.04V940.34H887.267z"/>
			<path fill="#00A4B5" d="M966.527,979.299c0,21.545-17.526,39.072-39.07,39.072c-21.545,0-39.072-17.527-39.072-39.072
				c0-21.543,17.527-39.07,39.072-39.07C949,940.229,966.527,957.756,966.527,979.299z M952.573,979.299
				c0-13.842-11.274-25.116-25.116-25.116c-13.844,0-25.118,11.274-25.118,25.116c0,13.844,11.274,25.118,25.118,25.118
				C941.298,1004.417,952.573,993.143,952.573,979.299z"/>
			<path fill="#00A4B5" d="M1050.252,979.299c0,21.545-17.526,39.072-39.07,39.072c-21.545,0-39.072-17.527-39.072-39.072
				c0-21.543,17.527-39.07,39.072-39.07C1032.726,940.229,1050.252,957.756,1050.252,979.299z M1036.298,979.299
				c0-13.842-11.274-25.116-25.116-25.116c-13.844,0-25.118,11.274-25.118,25.116c0,13.844,11.274,25.118,25.118,25.118
				C1025.024,1004.417,1036.298,993.143,1036.298,979.299z"/>
			<path fill="#00A4B5" d="M1123.039,1004.528v13.954h-39.63c-3.907,0-7.591-0.893-10.94-2.567
				c-4.911-2.455-8.93-6.475-11.274-11.387c-1.675-3.35-2.568-7.032-2.568-10.94V940.34h13.954v54.588
				c0.67,4.913,4.578,8.819,9.489,9.489L1123.039,1004.528z"/>
		</g>
		<g>
			<path d="M624.784,1084.813l-3.126,9.466h-4.018l10.225-30.094h4.688l10.269,30.094h-4.152l-3.215-9.466H624.784z
				 M634.651,1081.776l-2.992-8.662c-0.625-1.964-1.071-3.749-1.518-5.491h-0.134c-0.401,1.742-0.893,3.617-1.473,5.447
				l-2.947,8.706H634.651z"/>
			<path d="M646.304,1090.306c1.205,0.713,3.259,1.517,5.224,1.517c2.813,0,4.152-1.384,4.152-3.215
				c0-1.874-1.117-2.902-3.974-3.974c-3.929-1.428-5.76-3.527-5.76-6.117c0-3.481,2.858-6.34,7.456-6.34
				c2.189,0,4.108,0.581,5.269,1.339l-0.938,2.813c-0.848-0.491-2.411-1.25-4.42-1.25c-2.322,0-3.572,1.34-3.572,2.948
				c0,1.829,1.25,2.634,4.063,3.705c3.706,1.384,5.67,3.259,5.67,6.52c0,3.839-2.991,6.519-8.037,6.519
				c-2.366,0-4.554-0.626-6.072-1.52L646.304,1090.306z"/>
			<path d="M666.396,1068.695c-1.473,0-2.455-1.162-2.455-2.547c0-1.384,1.026-2.499,2.544-2.499c1.52,0,2.501,1.115,2.501,2.499
				c0,1.385-0.982,2.547-2.546,2.547H666.396z M664.521,1094.278v-21.61h3.929v21.61H664.521z"/>
			<path d="M674.433,1090.306c1.205,0.713,3.259,1.517,5.223,1.517c2.813,0,4.153-1.384,4.153-3.215
				c0-1.874-1.116-2.902-3.973-3.974c-3.93-1.428-5.761-3.527-5.761-6.117c0-3.481,2.858-6.34,7.457-6.34
				c2.188,0,4.108,0.581,5.27,1.339l-0.938,2.813c-0.848-0.491-2.411-1.25-4.419-1.25c-2.323,0-3.573,1.34-3.573,2.948
				c0,1.829,1.25,2.634,4.063,3.705c3.706,1.384,5.67,3.259,5.67,6.52c0,3.839-2.991,6.519-8.037,6.519
				c-2.367,0-4.555-0.626-6.073-1.52L674.433,1090.306z"/>
			<path d="M697.381,1067.488v5.18h5.625v2.991h-5.625v11.654c0,2.679,0.758,4.197,2.946,4.197c1.072,0,1.697-0.09,2.278-0.269
				l0.178,2.992c-0.759,0.268-1.964,0.536-3.482,0.536c-1.831,0-3.304-0.626-4.242-1.654c-1.072-1.204-1.518-3.124-1.518-5.669
				v-11.788h-3.349v-2.991h3.349v-3.973L697.381,1067.488z"/>
			<path d="M709.392,1084.144c0.089,5.313,3.438,7.501,7.368,7.501c2.812,0,4.553-0.492,5.982-1.072l0.715,2.769
				c-1.384,0.625-3.795,1.384-7.233,1.384c-6.609,0-10.628-4.419-10.628-10.895c0-6.563,3.885-11.698,10.181-11.698
				c7.055,0,8.885,6.207,8.885,10.18c0,0.805-0.045,1.43-0.133,1.877L709.392,1084.144z M720.868,1081.33
				c0.044-2.455-1.028-6.385-5.403-6.385c-4.019,0-5.715,3.661-6.027,6.385H720.868z"/>
			<path d="M729.528,1078.517c0-2.277-0.044-4.063-0.178-5.849h3.482l0.224,3.527h0.09c1.07-2.01,3.572-4.019,7.143-4.019
				c2.992,0,7.635,1.787,7.635,9.198v12.903h-3.929v-12.458c0-3.481-1.294-6.429-5-6.429c-2.546,0-4.555,1.831-5.27,4.02
				c-0.179,0.49-0.268,1.205-0.268,1.829v13.038h-3.929V1078.517z"/>
			<path d="M758.862,1067.488v5.18h5.625v2.991h-5.625v11.654c0,2.679,0.758,4.197,2.946,4.197c1.072,0,1.697-0.09,2.277-0.269
				l0.178,2.992c-0.758,0.268-1.964,0.536-3.481,0.536c-1.832,0-3.304-0.626-4.241-1.654c-1.072-1.204-1.518-3.124-1.518-5.669
				v-11.788h-3.349v-2.991h3.349v-3.973L758.862,1067.488z"/>
			<path d="M770.871,1084.144c0.09,5.313,3.439,7.501,7.367,7.501c2.813,0,4.555-0.492,5.983-1.072l0.715,2.769
				c-1.384,0.625-3.795,1.384-7.232,1.384c-6.609,0-10.628-4.419-10.628-10.895c0-6.563,3.885-11.698,10.18-11.698
				c7.055,0,8.886,6.207,8.886,10.18c0,0.805-0.045,1.43-0.134,1.877L770.871,1084.144z M782.347,1081.33
				c0.044-2.455-1.027-6.385-5.403-6.385c-4.019,0-5.715,3.661-6.027,6.385H782.347z"/>
			<path d="M819.136,1062.578v26.119c0,1.92,0.044,4.107,0.179,5.581h-3.528l-0.178-3.751h-0.089
				c-1.205,2.412-3.795,4.243-7.322,4.243c-5.225,0-9.289-4.422-9.289-10.984c-0.043-7.233,4.466-11.609,9.691-11.609
				c3.348,0,5.58,1.563,6.519,3.261h0.088v-12.859H819.136z M815.207,1081.465c0-0.537-0.044-1.162-0.178-1.698
				c-0.58-2.455-2.724-4.509-5.671-4.509c-4.063,0-6.474,3.572-6.474,8.305c0,4.421,2.188,8.037,6.386,8.037
				c2.634,0,5.045-1.787,5.759-4.688c0.134-0.537,0.178-1.072,0.178-1.698V1081.465z"/>
			<path d="M827.887,1084.144c0.09,5.313,3.438,7.501,7.368,7.501c2.812,0,4.554-0.492,5.981-1.072l0.715,2.769
				c-1.383,0.625-3.795,1.384-7.232,1.384c-6.608,0-10.627-4.419-10.627-10.895c0-6.563,3.885-11.698,10.18-11.698
				c7.055,0,8.887,6.207,8.887,10.18c0,0.805-0.046,1.43-0.135,1.877L827.887,1084.144z M839.363,1081.33
				c0.044-2.455-1.027-6.385-5.402-6.385c-4.02,0-5.716,3.661-6.027,6.385H839.363z"/>
			<path d="M859.006,1072.668l4.242,12.101c0.715,2.009,1.295,3.795,1.741,5.58h0.134c0.491-1.785,1.115-3.571,1.831-5.58
				l4.196-12.101h4.108l-8.484,21.61h-3.749l-8.217-21.61H859.006z"/>
			<path d="M880.706,1084.144c0.09,5.313,3.439,7.501,7.368,7.501c2.813,0,4.554-0.492,5.981-1.072l0.716,2.769
				c-1.385,0.625-3.795,1.384-7.233,1.384c-6.609,0-10.628-4.419-10.628-10.895c0-6.563,3.886-11.698,10.181-11.698
				c7.055,0,8.886,6.207,8.886,10.18c0,0.805-0.046,1.43-0.134,1.877L880.706,1084.144z M892.181,1081.33
				c0.045-2.455-1.028-6.385-5.402-6.385c-4.02,0-5.716,3.661-6.027,6.385H892.181z"/>
			<path d="M900.842,1078.517c0-2.277-0.044-4.063-0.179-5.849h3.482l0.224,3.527h0.09c1.07-2.01,3.571-4.019,7.143-4.019
				c2.991,0,7.636,1.787,7.636,9.198v12.903h-3.931v-12.458c0-3.481-1.294-6.429-4.999-6.429c-2.545,0-4.555,1.831-5.269,4.02
				c-0.18,0.49-0.269,1.205-0.269,1.829v13.038h-3.929V1078.517z"/>
			<path d="M930.175,1067.488v5.18h5.626v2.991h-5.626v11.654c0,2.679,0.759,4.197,2.946,4.197c1.071,0,1.697-0.09,2.278-0.269
				l0.178,2.992c-0.759,0.268-1.965,0.536-3.482,0.536c-1.831,0-3.304-0.626-4.241-1.654c-1.072-1.204-1.518-3.124-1.518-5.669
				v-11.788h-3.35v-2.991h3.35v-3.973L930.175,1067.488z"/>
			<path d="M955.447,1089.099c0,1.877,0.089,3.706,0.312,5.18h-3.528l-0.355-2.724h-0.134c-1.161,1.696-3.528,3.216-6.608,3.216
				c-4.375,0-6.608-3.081-6.608-6.207c0-5.224,4.645-8.081,12.993-8.037v-0.445c0-1.787-0.492-5.046-4.911-5.002
				c-2.054,0-4.153,0.58-5.671,1.608l-0.893-2.635c1.786-1.117,4.42-1.876,7.144-1.876c6.652,0,8.261,4.511,8.261,8.841V1089.099z
				 M951.606,1083.25c-4.286-0.09-9.153,0.67-9.153,4.867c0,2.59,1.697,3.75,3.662,3.75c2.856,0,4.688-1.786,5.313-3.615
				c0.134-0.403,0.179-0.85,0.179-1.25V1083.25z"/>
			<path d="M961.206,1090.306c1.205,0.713,3.259,1.517,5.223,1.517c2.813,0,4.153-1.384,4.153-3.215
				c0-1.874-1.115-2.902-3.974-3.974c-3.929-1.428-5.76-3.527-5.76-6.117c0-3.481,2.856-6.34,7.457-6.34
				c2.187,0,4.107,0.581,5.269,1.339l-0.938,2.813c-0.849-0.491-2.411-1.25-4.419-1.25c-2.323,0-3.573,1.34-3.573,2.948
				c0,1.829,1.25,2.634,4.063,3.705c3.706,1.384,5.671,3.259,5.671,6.52c0,3.839-2.992,6.519-8.036,6.519
				c-2.368,0-4.556-0.626-6.073-1.52L961.206,1090.306z"/>
		</g>
		<rect x="517.064" y="1079.921" width="91.886" height="5.177"/>
		<rect x="985.554" y="1079.921" width="91.885" height="5.177"/>
	</g>
</g>
</svg>
